<?xml version="1.0" encoding="UTF-8"?>
<svg id="Layer_1" data-name="Layer 1" xmlns="http://www.w3.org/2000/svg" xmlns:xlink="http://www.w3.org/1999/xlink" version="1.1" viewBox="0 0 600 600">
  <defs>
    <style>
      .cls-1 {
        fill: url(#linear-gradient-100);
      }

      .cls-1, .cls-2, .cls-3, .cls-4, .cls-5, .cls-6, .cls-7, .cls-8, .cls-9, .cls-10, .cls-11, .cls-12, .cls-13, .cls-14, .cls-15, .cls-16, .cls-17, .cls-18, .cls-19, .cls-20, .cls-21, .cls-22, .cls-23, .cls-24, .cls-25, .cls-26, .cls-27, .cls-28, .cls-29, .cls-30, .cls-31, .cls-32, .cls-33, .cls-34, .cls-35, .cls-36, .cls-37, .cls-38, .cls-39, .cls-40, .cls-41, .cls-42, .cls-43, .cls-44, .cls-45, .cls-46, .cls-47, .cls-48, .cls-49, .cls-50, .cls-51, .cls-52, .cls-53, .cls-54, .cls-55, .cls-56, .cls-57, .cls-58, .cls-59, .cls-60, .cls-61, .cls-62, .cls-63, .cls-64, .cls-65, .cls-66, .cls-67, .cls-68, .cls-69, .cls-70, .cls-71, .cls-72, .cls-73, .cls-74, .cls-75, .cls-76, .cls-77, .cls-78, .cls-79, .cls-80, .cls-81, .cls-82, .cls-83, .cls-84, .cls-85, .cls-86, .cls-87, .cls-88, .cls-89, .cls-90, .cls-91, .cls-92, .cls-93, .cls-94, .cls-95, .cls-96, .cls-97, .cls-98, .cls-99, .cls-100, .cls-101, .cls-102, .cls-103, .cls-104, .cls-105, .cls-106, .cls-107, .cls-108, .cls-109, .cls-110, .cls-111 {
        stroke-width: 0px;
      }

      .cls-2 {
        fill: url(#linear-gradient-101);
      }

      .cls-3 {
        fill: url(#linear-gradient-109);
      }

      .cls-4 {
        fill: url(#linear-gradient-108);
      }

      .cls-5 {
        fill: url(#linear-gradient-106);
      }

      .cls-6 {
        fill: url(#linear-gradient-107);
      }

      .cls-7 {
        fill: url(#linear-gradient-102);
      }

      .cls-8 {
        fill: url(#linear-gradient-104);
      }

      .cls-9 {
        fill: url(#linear-gradient-103);
      }

      .cls-10 {
        fill: url(#linear-gradient-105);
      }

      .cls-11 {
        fill: url(#linear-gradient);
      }

      .cls-12 {
        fill: url(#linear-gradient-38);
      }

      .cls-13 {
        fill: url(#linear-gradient-33);
      }

      .cls-14 {
        fill: url(#linear-gradient-29);
      }

      .cls-15 {
        fill: url(#linear-gradient-32);
      }

      .cls-16 {
        fill: url(#linear-gradient-30);
      }

      .cls-17 {
        fill: url(#linear-gradient-31);
      }

      .cls-18 {
        fill: url(#linear-gradient-36);
      }

      .cls-19 {
        fill: url(#linear-gradient-39);
      }

      .cls-20 {
        fill: url(#linear-gradient-34);
      }

      .cls-21 {
        fill: url(#linear-gradient-37);
      }

      .cls-22 {
        fill: url(#linear-gradient-35);
      }

      .cls-23 {
        fill: url(#linear-gradient-28);
      }

      .cls-24 {
        fill: url(#linear-gradient-25);
      }

      .cls-25 {
        fill: url(#linear-gradient-11);
      }

      .cls-26 {
        fill: url(#linear-gradient-12);
      }

      .cls-27 {
        fill: url(#linear-gradient-13);
      }

      .cls-28 {
        fill: url(#linear-gradient-10);
      }

      .cls-29 {
        fill: url(#linear-gradient-17);
      }

      .cls-30 {
        fill: url(#linear-gradient-16);
      }

      .cls-31 {
        fill: url(#linear-gradient-19);
      }

      .cls-32 {
        fill: url(#linear-gradient-15);
      }

      .cls-33 {
        fill: url(#linear-gradient-23);
      }

      .cls-34 {
        fill: url(#linear-gradient-21);
      }

      .cls-35 {
        fill: url(#linear-gradient-18);
      }

      .cls-36 {
        fill: url(#linear-gradient-14);
      }

      .cls-37 {
        fill: url(#linear-gradient-22);
      }

      .cls-38 {
        fill: url(#linear-gradient-20);
      }

      .cls-39 {
        fill: url(#linear-gradient-27);
      }

      .cls-40 {
        fill: url(#linear-gradient-24);
      }

      .cls-41 {
        fill: url(#linear-gradient-26);
      }

      .cls-42 {
        fill: url(#linear-gradient-45);
      }

      .cls-43 {
        fill: url(#linear-gradient-46);
      }

      .cls-44 {
        fill: url(#linear-gradient-44);
      }

      .cls-45 {
        fill: url(#linear-gradient-48);
      }

      .cls-46 {
        fill: url(#linear-gradient-49);
      }

      .cls-47 {
        fill: url(#linear-gradient-47);
      }

      .cls-48 {
        fill: url(#linear-gradient-42);
      }

      .cls-49 {
        fill: url(#linear-gradient-43);
      }

      .cls-50 {
        fill: url(#linear-gradient-40);
      }

      .cls-51 {
        fill: url(#linear-gradient-41);
      }

      .cls-52 {
        fill: url(#linear-gradient-59);
      }

      .cls-53 {
        fill: url(#linear-gradient-57);
      }

      .cls-54 {
        fill: url(#linear-gradient-58);
      }

      .cls-55 {
        fill: url(#linear-gradient-55);
      }

      .cls-56 {
        fill: url(#linear-gradient-56);
      }

      .cls-57 {
        fill: url(#linear-gradient-53);
      }

      .cls-58 {
        fill: url(#linear-gradient-51);
      }

      .cls-59 {
        fill: url(#linear-gradient-52);
      }

      .cls-60 {
        fill: url(#linear-gradient-50);
      }

      .cls-61 {
        fill: url(#linear-gradient-54);
      }

      .cls-62 {
        fill: url(#linear-gradient-60);
      }

      .cls-63 {
        fill: url(#linear-gradient-61);
      }

      .cls-64 {
        fill: url(#linear-gradient-62);
      }

      .cls-65 {
        fill: url(#linear-gradient-65);
      }

      .cls-66 {
        fill: url(#linear-gradient-79);
      }

      .cls-67 {
        fill: url(#linear-gradient-78);
      }

      .cls-68 {
        fill: url(#linear-gradient-77);
      }

      .cls-69 {
        fill: url(#linear-gradient-75);
      }

      .cls-70 {
        fill: url(#linear-gradient-76);
      }

      .cls-71 {
        fill: url(#linear-gradient-74);
      }

      .cls-72 {
        fill: url(#linear-gradient-67);
      }

      .cls-73 {
        fill: url(#linear-gradient-68);
      }

      .cls-74 {
        fill: url(#linear-gradient-66);
      }

      .cls-75 {
        fill: url(#linear-gradient-63);
      }

      .cls-76 {
        fill: url(#linear-gradient-69);
      }

      .cls-77 {
        fill: url(#linear-gradient-64);
      }

      .cls-78 {
        fill: url(#linear-gradient-71);
      }

      .cls-79 {
        fill: url(#linear-gradient-72);
      }

      .cls-80 {
        fill: url(#linear-gradient-70);
      }

      .cls-81 {
        fill: url(#linear-gradient-73);
      }

      .cls-82 {
        fill: url(#linear-gradient-84);
      }

      .cls-83 {
        fill: url(#linear-gradient-85);
      }

      .cls-84 {
        fill: url(#linear-gradient-82);
      }

      .cls-85 {
        fill: url(#linear-gradient-83);
      }

      .cls-86 {
        fill: url(#linear-gradient-89);
      }

      .cls-87 {
        fill: url(#linear-gradient-88);
      }

      .cls-88 {
        fill: url(#linear-gradient-86);
      }

      .cls-89 {
        fill: url(#linear-gradient-87);
      }

      .cls-90 {
        fill: url(#linear-gradient-80);
      }

      .cls-91 {
        fill: url(#linear-gradient-81);
      }

      .cls-92 {
        fill: url(#linear-gradient-98);
      }

      .cls-93 {
        fill: url(#linear-gradient-91);
      }

      .cls-94 {
        fill: url(#linear-gradient-92);
      }

      .cls-95 {
        fill: url(#linear-gradient-93);
      }

      .cls-96 {
        fill: url(#linear-gradient-90);
      }

      .cls-97 {
        fill: url(#linear-gradient-96);
      }

      .cls-98 {
        fill: url(#linear-gradient-97);
      }

      .cls-99 {
        fill: url(#linear-gradient-94);
      }

      .cls-100 {
        fill: url(#linear-gradient-95);
      }

      .cls-101 {
        fill: url(#linear-gradient-99);
      }

      .cls-102 {
        fill: #050608;
      }

      .cls-103 {
        fill: #3b3f1e;
      }

      .cls-104 {
        fill: url(#linear-gradient-4);
      }

      .cls-105 {
        fill: url(#linear-gradient-2);
      }

      .cls-106 {
        fill: url(#linear-gradient-3);
      }

      .cls-107 {
        fill: url(#linear-gradient-8);
      }

      .cls-108 {
        fill: url(#linear-gradient-9);
      }

      .cls-109 {
        fill: url(#linear-gradient-7);
      }

      .cls-110 {
        fill: url(#linear-gradient-5);
      }

      .cls-111 {
        fill: url(#linear-gradient-6);
      }
    </style>
    <linearGradient id="linear-gradient" x1="210.6" y1="136.6" x2="462.4" y2="132.2" gradientTransform="translate(0 600.7) scale(1 -1)" gradientUnits="userSpaceOnUse">
      <stop offset="0" stop-color="#ac6f2c"/>
      <stop offset=".3" stop-color="#e2bb3b"/>
      <stop offset=".5" stop-color="#e6e694"/>
      <stop offset=".8" stop-color="#b7945c"/>
      <stop offset="1" stop-color="#894925"/>
    </linearGradient>
    <linearGradient id="linear-gradient-2" x1="245.2" y1="121.8" x2="340.6" y2="121.8" gradientUnits="userSpaceOnUse">
      <stop offset=".1" stop-color="#ac6f2c"/>
      <stop offset=".3" stop-color="#e2bb3b"/>
      <stop offset=".5" stop-color="#e6e694"/>
      <stop offset=".8" stop-color="#b7945c"/>
      <stop offset="1" stop-color="#894925"/>
    </linearGradient>
    <linearGradient id="linear-gradient-3" x1="208.4" y1="193.8" x2="229.4" y2="193.8" gradientUnits="userSpaceOnUse">
      <stop offset="0" stop-color="#894925"/>
      <stop offset=".1" stop-color="#8b4d28"/>
      <stop offset=".2" stop-color="#935a31"/>
      <stop offset=".3" stop-color="#a17042"/>
      <stop offset=".4" stop-color="#b38f58"/>
      <stop offset=".5" stop-color="#b7945c"/>
      <stop offset=".6" stop-color="#e6e694"/>
      <stop offset=".7" stop-color="#e2bb3b"/>
      <stop offset=".9" stop-color="#ac6f2c"/>
    </linearGradient>
    <linearGradient id="linear-gradient-4" x1="222" y1="185" x2="243.4" y2="185" xlink:href="#linear-gradient-3"/>
    <linearGradient id="linear-gradient-5" x1="236.7" y1="177.8" x2="258.5" y2="177.8" xlink:href="#linear-gradient-3"/>
    <linearGradient id="linear-gradient-6" x1="252.3" y1="172.5" x2="274" y2="172.5" xlink:href="#linear-gradient-3"/>
    <linearGradient id="linear-gradient-7" x1="169.2" y1="244.7" x2="185.3" y2="244.7" xlink:href="#linear-gradient-3"/>
    <linearGradient id="linear-gradient-8" x1="163.9" y1="259.9" x2="178.4" y2="259.9" xlink:href="#linear-gradient-3"/>
    <linearGradient id="linear-gradient-9" x1="159.9" y1="292.2" x2="169.9" y2="292.2" xlink:href="#linear-gradient-3"/>
    <linearGradient id="linear-gradient-10" x1="160.2" y1="308.8" x2="169" y2="308.8" xlink:href="#linear-gradient-3"/>
    <linearGradient id="linear-gradient-11" x1="162.5" y1="324.8" x2="171.3" y2="324.8" xlink:href="#linear-gradient-3"/>
    <linearGradient id="linear-gradient-12" x1="166.6" y1="340.8" x2="175.5" y2="340.8" xlink:href="#linear-gradient-3"/>
    <linearGradient id="linear-gradient-13" x1="180.6" y1="370.5" x2="189.8" y2="370.5" xlink:href="#linear-gradient-3"/>
    <linearGradient id="linear-gradient-14" x1="172.7" y1="356.2" x2="181.7" y2="356.2" xlink:href="#linear-gradient-3"/>
    <linearGradient id="linear-gradient-15" x1="161" y1="275.8" x2="173.2" y2="275.8" xlink:href="#linear-gradient-3"/>
    <linearGradient id="linear-gradient-16" x1="176.4" y1="229.6" x2="194.9" y2="229.6" xlink:href="#linear-gradient-3"/>
    <linearGradient id="linear-gradient-17" x1="185.4" y1="216.5" x2="204.8" y2="216.5" xlink:href="#linear-gradient-3"/>
    <linearGradient id="linear-gradient-18" x1="268.8" y1="169.2" x2="289.9" y2="169.2" xlink:href="#linear-gradient-3"/>
    <linearGradient id="linear-gradient-19" x1="320.1" y1="172.1" x2="337.9" y2="172.1" xlink:href="#linear-gradient-3"/>
    <linearGradient id="linear-gradient-20" x1="336.9" y1="177.1" x2="353.1" y2="177.1" xlink:href="#linear-gradient-3"/>
    <linearGradient id="linear-gradient-21" x1="352.9" y1="184.2" x2="367.4" y2="184.2" xlink:href="#linear-gradient-3"/>
    <linearGradient id="linear-gradient-22" x1="190.3" y1="384" x2="199.2" y2="384" xlink:href="#linear-gradient-3"/>
    <linearGradient id="linear-gradient-23" x1="285.8" y1="168" x2="306.1" y2="168" xlink:href="#linear-gradient-3"/>
    <linearGradient id="linear-gradient-24" x1="303.1" y1="169.1" x2="322.3" y2="169.1" xlink:href="#linear-gradient-3"/>
    <linearGradient id="linear-gradient-25" x1="196.1" y1="204.7" x2="216.4" y2="204.7" xlink:href="#linear-gradient-3"/>
    <linearGradient id="linear-gradient-26" x1="334.6" y1="423.6" x2="356.3" y2="423.6" xlink:href="#linear-gradient-3"/>
    <linearGradient id="linear-gradient-27" x1="349.8" y1="416.6" x2="371.2" y2="416.6" xlink:href="#linear-gradient-3"/>
    <linearGradient id="linear-gradient-28" x1="318.9" y1="428.8" x2="340.4" y2="428.8" xlink:href="#linear-gradient-3"/>
    <linearGradient id="linear-gradient-29" x1="201.5" y1="396.3" x2="211.1" y2="396.3" xlink:href="#linear-gradient-3"/>
    <linearGradient id="linear-gradient-30" x1="303.1" y1="432" x2="323.9" y2="432" xlink:href="#linear-gradient-3"/>
    <linearGradient id="linear-gradient-31" x1="389.3" y1="385.3" x2="408" y2="385.3" xlink:href="#linear-gradient-3"/>
    <linearGradient id="linear-gradient-32" x1="409.4" y1="357.4" x2="424.7" y2="357.4" xlink:href="#linear-gradient-3"/>
    <linearGradient id="linear-gradient-33" x1="376.7" y1="397.5" x2="397.2" y2="397.5" xlink:href="#linear-gradient-3"/>
    <linearGradient id="linear-gradient-34" x1="416.4" y1="342.2" x2="430" y2="342.2" xlink:href="#linear-gradient-3"/>
    <linearGradient id="linear-gradient-35" x1="400.3" y1="371.8" x2="417.5" y2="371.8" xlink:href="#linear-gradient-3"/>
    <linearGradient id="linear-gradient-36" x1="382.1" y1="203.5" x2="392" y2="203.5" xlink:href="#linear-gradient-3"/>
    <linearGradient id="linear-gradient-37" x1="367.9" y1="192.8" x2="380" y2="192.8" xlink:href="#linear-gradient-3"/>
    <linearGradient id="linear-gradient-38" x1="424.4" y1="310.5" x2="434.4" y2="310.5" xlink:href="#linear-gradient-3"/>
    <linearGradient id="linear-gradient-39" x1="422.7" y1="273.9" x2="431.7" y2="273.9" xlink:href="#linear-gradient-3"/>
    <linearGradient id="linear-gradient-40" x1="418.3" y1="258.1" x2="427.2" y2="258.1" xlink:href="#linear-gradient-3"/>
    <linearGradient id="linear-gradient-41" x1="411.8" y1="242.6" x2="421" y2="242.6" xlink:href="#linear-gradient-3"/>
    <linearGradient id="linear-gradient-42" x1="393.9" y1="214.9" x2="403.1" y2="214.9" xlink:href="#linear-gradient-3"/>
    <linearGradient id="linear-gradient-43" x1="403.8" y1="228.2" x2="412.9" y2="228.2" xlink:href="#linear-gradient-3"/>
    <linearGradient id="linear-gradient-44" x1="425.3" y1="290.1" x2="434" y2="290.1" xlink:href="#linear-gradient-3"/>
    <linearGradient id="linear-gradient-45" x1="421.4" y1="326.4" x2="433.1" y2="326.4" xlink:href="#linear-gradient-3"/>
    <linearGradient id="linear-gradient-46" x1="363.9" y1="408.1" x2="385" y2="408.1" xlink:href="#linear-gradient-3"/>
    <linearGradient id="linear-gradient-47" x1="226.1" y1="416" x2="240.1" y2="416" xlink:href="#linear-gradient-3"/>
    <linearGradient id="linear-gradient-48" x1="286.9" y1="433" x2="306.4" y2="433" xlink:href="#linear-gradient-3"/>
    <linearGradient id="linear-gradient-49" x1="240.3" y1="423.2" x2="256.1" y2="423.2" xlink:href="#linear-gradient-3"/>
    <linearGradient id="linear-gradient-50" x1="213.3" y1="407" x2="225" y2="407" xlink:href="#linear-gradient-3"/>
    <linearGradient id="linear-gradient-51" x1="270.7" y1="431.6" x2="289.7" y2="431.6" xlink:href="#linear-gradient-3"/>
    <linearGradient id="linear-gradient-52" x1="255.2" y1="428.4" x2="272.7" y2="428.4" xlink:href="#linear-gradient-3"/>
    <linearGradient id="linear-gradient-53" x1="215.6" y1="271.8" x2="378.8" y2="271.8" gradientTransform="matrix(1,0,0,1,0,0)" xlink:href="#linear-gradient"/>
    <linearGradient id="linear-gradient-54" x1="270.5" y1="299.7" x2="325.3" y2="299.7" gradientTransform="matrix(1,0,0,1,0,0)" xlink:href="#linear-gradient"/>
    <linearGradient id="linear-gradient-55" x1="293.2" y1="275.3" x2="293.2" y2="275.3" gradientTransform="matrix(1,0,0,1,0,0)" xlink:href="#linear-gradient"/>
    <linearGradient id="linear-gradient-56" x1="293.2" y1="275.1" x2="293.2" y2="275.1" gradientTransform="matrix(1,0,0,1,0,0)" xlink:href="#linear-gradient"/>
    <linearGradient id="linear-gradient-57" x1="293.2" y1="275.4" x2="293.2" y2="275.4" gradientTransform="matrix(1,0,0,1,0,0)" xlink:href="#linear-gradient"/>
    <linearGradient id="linear-gradient-58" x1="292.9" y1="274.9" x2="293" y2="274.9" gradientTransform="matrix(1,0,0,1,0,0)" xlink:href="#linear-gradient"/>
    <linearGradient id="linear-gradient-59" x1="290" y1="274.1" x2="290.2" y2="274.1" gradientTransform="matrix(1,0,0,1,0,0)" xlink:href="#linear-gradient"/>
    <linearGradient id="linear-gradient-60" x1="289.7" y1="274.2" x2="289.7" y2="274.2" gradientTransform="matrix(1,0,0,1,0,0)" xlink:href="#linear-gradient"/>
    <linearGradient id="linear-gradient-61" x1="289.8" y1="274.2" x2="289.8" y2="274.2" gradientTransform="matrix(1,0,0,1,0,0)" xlink:href="#linear-gradient"/>
    <linearGradient id="linear-gradient-62" x1="289.9" y1="274.1" x2="289.9" y2="274.1" gradientTransform="matrix(1,0,0,1,0,0)" xlink:href="#linear-gradient"/>
    <linearGradient id="linear-gradient-63" x1="293" y1="275.8" x2="293" y2="275.8" gradientTransform="matrix(1,0,0,1,0,0)" xlink:href="#linear-gradient"/>
    <linearGradient id="linear-gradient-64" x1="292.9" y1="275.9" x2="292.9" y2="275.9" gradientTransform="matrix(1,0,0,1,0,0)" xlink:href="#linear-gradient"/>
    <linearGradient id="linear-gradient-65" x1="292.7" y1="275.9" x2="292.7" y2="275.9" gradientTransform="matrix(1,0,0,1,0,0)" xlink:href="#linear-gradient"/>
    <linearGradient id="linear-gradient-66" x1="292.6" y1="275.9" x2="292.6" y2="275.9" gradientTransform="matrix(1,0,0,1,0,0)" xlink:href="#linear-gradient"/>
    <linearGradient id="linear-gradient-67" x1="246" y1="351.8" x2="352.6" y2="351.8" gradientTransform="matrix(1,0,0,1,0,0)" xlink:href="#linear-gradient"/>
    <linearGradient id="linear-gradient-68" x1="237.9" y1="134.1" x2="243.2" y2="134.1" xlink:href="#linear-gradient-2"/>
    <linearGradient id="linear-gradient-69" x1="350.6" y1="134.2" x2="355.5" y2="134.2" xlink:href="#linear-gradient-2"/>
    <linearGradient id="linear-gradient-70" x1="239.8" y1="127.3" x2="244.2" y2="127.3" xlink:href="#linear-gradient-2"/>
    <linearGradient id="linear-gradient-71" x1="349.8" y1="127.3" x2="354.4" y2="127.3" xlink:href="#linear-gradient-2"/>
    <linearGradient id="linear-gradient-72" x1="242.1" y1="121.2" x2="246.3" y2="121.2" xlink:href="#linear-gradient-2"/>
    <linearGradient id="linear-gradient-73" x1="318.5" y1="135.8" x2="323.1" y2="135.8" xlink:href="#linear-gradient-2"/>
    <linearGradient id="linear-gradient-74" x1="325.9" y1="137.8" x2="330.1" y2="137.8" xlink:href="#linear-gradient-2"/>
    <linearGradient id="linear-gradient-75" x1="303.1" y1="134.6" x2="307.5" y2="134.6" xlink:href="#linear-gradient-2"/>
    <linearGradient id="linear-gradient-76" x1="310.6" y1="135.2" x2="315.2" y2="135.2" xlink:href="#linear-gradient-2"/>
    <linearGradient id="linear-gradient-77" x1="334" y1="118.8" x2="338.3" y2="118.8" xlink:href="#linear-gradient-2"/>
    <linearGradient id="linear-gradient-78" x1="294.7" y1="124.2" x2="298.9" y2="124.2" xlink:href="#linear-gradient-2"/>
    <linearGradient id="linear-gradient-79" x1="334" y1="139.8" x2="338.2" y2="139.8" xlink:href="#linear-gradient-2"/>
    <linearGradient id="linear-gradient-80" x1="334" y1="132.2" x2="338.2" y2="132.2" xlink:href="#linear-gradient-2"/>
    <linearGradient id="linear-gradient-81" x1="294.7" y1="109.7" x2="298.9" y2="109.7" xlink:href="#linear-gradient-2"/>
    <linearGradient id="linear-gradient-82" x1="270.5" y1="136" x2="274.4" y2="136" xlink:href="#linear-gradient-2"/>
    <linearGradient id="linear-gradient-83" x1="294.7" y1="134.2" x2="299" y2="134.2" xlink:href="#linear-gradient-2"/>
    <linearGradient id="linear-gradient-84" x1="255" y1="139.8" x2="259" y2="139.8" xlink:href="#linear-gradient-2"/>
    <linearGradient id="linear-gradient-85" x1="333.9" y1="125.9" x2="338.1" y2="125.9" xlink:href="#linear-gradient-2"/>
    <linearGradient id="linear-gradient-86" x1="255.1" y1="125.6" x2="259.1" y2="125.6" xlink:href="#linear-gradient-2"/>
    <linearGradient id="linear-gradient-87" x1="263" y1="137.8" x2="267" y2="137.8" xlink:href="#linear-gradient-2"/>
    <linearGradient id="linear-gradient-88" x1="347.8" y1="121.2" x2="351.8" y2="121.2" xlink:href="#linear-gradient-2"/>
    <linearGradient id="linear-gradient-89" x1="286" y1="134.6" x2="289.9" y2="134.6" xlink:href="#linear-gradient-2"/>
    <linearGradient id="linear-gradient-90" x1="255.2" y1="132.2" x2="259.1" y2="132.2" xlink:href="#linear-gradient-2"/>
    <linearGradient id="linear-gradient-91" x1="294.7" y1="116.8" x2="299" y2="116.8" xlink:href="#linear-gradient-2"/>
    <linearGradient id="linear-gradient-92" x1="278.3" y1="135.2" x2="282.3" y2="135.2" xlink:href="#linear-gradient-2"/>
    <linearGradient id="linear-gradient-93" x1="255.2" y1="118.9" x2="259.1" y2="118.9" xlink:href="#linear-gradient-2"/>
    <linearGradient id="linear-gradient-94" x1="245.3" y1="115.9" x2="248.7" y2="115.9" xlink:href="#linear-gradient-2"/>
    <linearGradient id="linear-gradient-95" x1="249.5" y1="111.7" x2="253.1" y2="111.7" xlink:href="#linear-gradient-2"/>
    <linearGradient id="linear-gradient-96" x1="276.2" y1="106.1" x2="279.7" y2="106.1" xlink:href="#linear-gradient-2"/>
    <linearGradient id="linear-gradient-97" x1="283.3" y1="105.8" x2="286.9" y2="105.8" xlink:href="#linear-gradient-2"/>
    <linearGradient id="linear-gradient-98" x1="299.6" y1="104.7" x2="303.2" y2="104.7" xlink:href="#linear-gradient-2"/>
    <linearGradient id="linear-gradient-99" x1="256.2" y1="112.7" x2="259.8" y2="112.7" xlink:href="#linear-gradient-2"/>
    <linearGradient id="linear-gradient-100" x1="290.1" y1="104.7" x2="293.6" y2="104.7" xlink:href="#linear-gradient-2"/>
    <linearGradient id="linear-gradient-101" x1="269.1" y1="107.3" x2="272.7" y2="107.3" xlink:href="#linear-gradient-2"/>
    <linearGradient id="linear-gradient-102" x1="262.4" y1="109.7" x2="266" y2="109.7" xlink:href="#linear-gradient-2"/>
    <linearGradient id="linear-gradient-103" x1="313.7" y1="106.1" x2="317.3" y2="106.1" xlink:href="#linear-gradient-2"/>
    <linearGradient id="linear-gradient-104" x1="345.3" y1="115.8" x2="348.7" y2="115.8" xlink:href="#linear-gradient-2"/>
    <linearGradient id="linear-gradient-105" x1="320.6" y1="107.3" x2="324.2" y2="107.3" xlink:href="#linear-gradient-2"/>
    <linearGradient id="linear-gradient-106" x1="306.5" y1="105.5" x2="310" y2="105.5" xlink:href="#linear-gradient-2"/>
    <linearGradient id="linear-gradient-107" x1="333.6" y1="112.5" x2="337" y2="112.5" xlink:href="#linear-gradient-2"/>
    <linearGradient id="linear-gradient-108" x1="340.9" y1="111.4" x2="344.3" y2="111.4" xlink:href="#linear-gradient-2"/>
    <linearGradient id="linear-gradient-109" x1="327.4" y1="109.7" x2="330.8" y2="109.7" xlink:href="#linear-gradient-2"/>
  </defs>
  <path class="cls-11" d="M393.4,420.4c-2,1.5-4,2.9-6,4.3-9.3,6.5-19.2,11.8-29.6,16.3-7.9,3.4-16.1,6.1-24.6,8.1-8.5,2-17.2,3.4-26,3.9-9.2.5-18.3.3-27.5-.7-6.8-.8-13.4-2-19.9-3.6-8.7-2.2-17.3-5.1-25.5-8.7-11.9-5.3-23-11.8-33.3-19.5h-85.2c4.6,6.6,9.5,13,14.8,19.1,7,8,14.5,15.4,22.7,22.3,4.9,4.1,10,7.9,15.2,11.7,10.2,7.4,21.2,13.7,32.5,19.1,9,4.3,18.2,8,27.7,10.9,5.8,1.8,11.6,3.5,17.6,4.8,5.8,1.3,11.7,2.3,17.6,3.2,4.6.8,9.3,1.2,14,1.8,2.4.3,4.8.3,7.1.5.8,0,1.5.3,2.2.4h20.4c1.6-.3,3.3-.5,5-.8,4.7-.5,9.5-.9,14.2-1.4,4-.5,8.1-1,12.1-1.8,5-1,9.9-2.1,14.8-3.3,9.8-2.4,19.3-5.6,28.7-9.4,12.9-5.3,25.2-11.7,36.9-19.3,14.5-9.5,27.7-20.5,39.6-33.1,7.2-7.7,13.8-15.9,19.9-24.6h-85.2Z"/>
  <path class="cls-103" d="M159.8,419.4c-2,.3-4,.5-6.1.4-.2,0-.4-.1-.6-.3l-8.5-10c-.3-.3-.8-.5-1.2-.5-3.8,0-7.1.2-10-.4-5.5-1.2-10.3-3.8-14.5-7.9-3.3-3.3-5.6-5.3-6.6-6.3-.2-.1-.2-.4,0-.6,0,0,.1-.1.3-.1.9,0,2,0,3.2,0,8.3,1,15.9,3.7,22.8,8.2h.2c0-.1-5.5-9.7-5.5-9.7-.3-.5-.9-1-1.6-1-11.5-.5-21.3-7.2-27.3-16.7-.1-.2,0-.5.1-.5h.1c.2,0,.5,0,1,.1,9.8,3,15.2,4.6,15.9,4.9,2.7,1.1,4.6,2,5.6,2.6h.3c0-.1-2.7-6.7-2.7-6.7-.2-.5-.6-.8-1.2-.8-14-.6-22.1-13.3-26.4-25.1,0-.2,0-.4.2-.5h.3c9.7,3.3,17.5,9,23.5,17.1h.1c0-.1-3.8-14.4-3.8-14.4,0-.3-.3-.6-.7-.7-12.9-2.9-20.2-11.1-21.9-24.4,0-.3.1-.5.4-.5h.3c8.5,4.5,15.2,10.8,20.2,18.8,0,0,.1.1.3,0,0,0,0-.1,0-.2l-1.3-10.5c0-.7-.5-1.2-1.2-1.5-11.2-4.6-17.8-15.8-17.7-27.9,0-.4,0-.7.1-.9.1-.3.4-.3.6-.2,0,0,0,0,.1,0,7.3,7.1,11.8,15.2,17.1,24.4,0,0,.1,0,.1,0h0c0-.1-.5-12.5-.5-12.5,0-.5-.3-1-.8-1.4-10.6-6.6-14.7-18-15.2-30.2,0-.4,0-.7,0-.9,0-.1.3-.3.4-.1,0,0,0,0,.1.1,6.2,8.5,12.1,16,15.1,24.9,0,0,.1.1.2.1s.1,0,.1-.1l.7-11.3c0-.5-.2-.9-.5-1.2-10.1-8.1-11.3-20.8-12.6-32.8,0-.2,0-.3.2-.4.2-.1.4,0,.5.1,6.3,8.1,10.6,16.9,12.9,26.5,0,0,.1.1.2.1s.1,0,.1-.1l1.2-10.4c0-.3,0-.6-.2-.8-7.7-10.7-7.9-24.4-5.6-37,0-.3.3-.4.5-.4s.3,0,.3.2c5.6,8.3,6.1,19.4,6.7,29,0,0,0,.1.2.1s.1,0,.1-.1l3-13.5c0-.4,0-.8-.1-1.2-5.4-10.3-4.5-21.7-2.8-32.9,0-.3.1-.5.3-.7.1-.2.3-.2.5-.1,0,0,0,0,.1.1,4.9,8,5.8,16.2,5,25.3,0,0,0,0,0,0h0l4.1-10.8c.2-.5.2-1,0-1.4-.3-.6-.9-2.5-1.9-5.5-2.5-7.3-2.4-14.8.2-22.5,0,0,.1-.1.2,0,0,0,0,0,.1.1.1,2.6.9,4.6,2.6,7.4,2.7,4.2,2.2,10.4,1.4,14.9,0,0,0,.2.1.2s.1,0,.2,0l4.2-8.3c.2-.4.3-1,0-1.4-1.4-4.2-3.3-9.4-3-14.5.2-4.2,1.1-8.3,2.7-12.4,0-.2.3-.3.5-.2,0,0,.1,0,.2.1,4,5.3,4.3,10.5,2.9,17.1-.5,2.1-.9,4.4-1.3,6.8,0,0,0,.1.1.2,0,0,.1,0,.2,0l6.2-10.1c.3-.5.4-1.2.2-1.8-2-6.1-2.9-11.4-1.3-17.8.7-2.7,1.5-6,2.8-8.5.1-.3.4-.3.7-.2,0,0,.1,0,.2.1,4.8,6.6,2.5,15,.8,22.4,0,.1,0,.3.2.3s.2,0,.3,0l5.1-7c.2-.3.3-.8.1-1.1-1.8-4.6-1.8-9.5,0-14.5,1.6-4.2,3-8.7,4.3-13.3,0-.2.3-.3.5-.3,2.3,0,2.7,4.2,2.4,5.9-.8,4.4-3.6,12.3-4.2,18.9,0,.1,0,.3.2.3s.1,0,.2,0l6.2-7c.2-.3.3-.6.2-1-2.8-7.6.9-13.9,4.6-20.2,1.2-2,2-4.2,2.9-6.4.1-.4.5-.5,1-.4,3.1,1.1,2.5,4.4,1.4,6.9-3.3,7-5.6,11.2-7,17.2,0,.1,0,.3.2.3s.2,0,.3,0l8.3-7.6c.3-.3.4-.8.3-1.2-2-5.5.3-10.5,3.8-14.7,2.8-3.3,5.5-6.6,8.1-9.6.8-1,1.5-2.5,2.2-3.4.1-.2.4-.3.5-.1.1,0,.2.2.2.3,0,4.5-1.2,8.7-3.8,12.6s-6,8.1-7.8,12.6c0,.1,0,.2.1.3h.2l12.9-9.6c.1,0,.1-.2.1-.3-.2-3.8-.6-7.9.7-11.3,1.2-3,2.7-5.3,4.6-6.8,4.4-3.6,6.8-5.2,9.3-8.5,0-.1.2-.1.3,0,0,0,0,.1,0,.2-.2,5.1-2.8,9.2-6.1,13.2-3.2,3.8-6.7,7.6-7.6,12.2,0,.1,0,.3.2.3h.2l12.1-7c.3-.2.5-.5.4-.9-.4-2.3-.8-5.7.4-8,1-1.9,2.1-3.4,3.4-4.5,4.6-3.6,8.5-6.1,11.1-9.8,0-.1.3-.2.4,0,0,0,.1,0,.1.2.8,2.9-1.9,7.8-4,10.2-1.7,2-4.2,4.5-7.4,7.6-1,1-1.8,2.2-2.5,3.7,0,.1,0,.3.1.3h.2c7.4-3.6,15-6.8,22.9-9.4,0,0,.1,0,.2,0h0c0,0,0,.2,0,.2-6.8,2.9-13.8,6.4-21,10.2,0,0,0,.1,0,.1,0,0,0,0,.1,0,2.2-.2,5.1-.5,7.2,0,2.3.5,4.3,1.6,6.2,3,.3.2.3.5,0,.8,0,0,0,0,0,0-5.2,4-12.7,2.5-17.8-.8-.2-.1-.5-.1-.8,0l-7.9,4.6c-.1,0-.2.2-.1.3,0,0,.1.1.3.1,1.8-.2,4.7-.8,6.7-.5,2,.3,4.2,1.3,6.4,2.7.3.3.5.8.2,1.1,0,0,0,0-.1.1-5.3,5.2-12,4.1-17.4-.2-.3-.2-.6-.2-.8,0l-3.8,2.9c0,0-.1.2,0,.3,0,0,.1,0,.2,0,5.4-.3,7.7,2.7,11.3,6,.1,0,.1.3,0,.4,0,0,0,0-.1,0-5.8,1.1-10.9.1-15.5-3-.2-.1-.5-.1-.7,0l-4.1,3.8v.2h.1c4.5-1.5,8.7,1.2,13,2.4.2,0,.3.3.3.5,0,0,0,.1,0,.1-6.2,5.9-12.4,5.6-20.2,3.6-.1,0-.3,0-.3,0l-5.5,5c-.1.1-.1.3,0,.4,0,0,.1.1.3,0l2.9-.5h.5l10.6,1.6c.2,0,.3.2.3.4,0,0,0,.1,0,.1-4.2,5-12.4,4.8-18.4,3.4-.6-.1-1.2,0-1.6.6l-4.2,5.7h0c2.7-1.5,4.9-2.1,8.3-1.4,1.9.4,4.1.6,6.6.5.2,0,.4.2.4.4s0,.2-.1.3c-4.8,4.9-11.6,5.9-18.2,4.5-.3,0-.5,0-.8.3l-5.3,7.2c0,0,0,.2,0,.3s.2,0,.3,0h0c2.3-2,5.3-3.8,8.4-3.1.8.2,2.1.4,4,.7.4,0,.8,0,1.2,0l3.4-.9c.2,0,.4,0,.4.3s0,.3-.1.4c-5.9,4.6-12.6,6.8-20.2,7.4-.3,0-.5.1-.6.4l-4.4,7.7v.3h.2c2.8-1.7,5.3-2.8,8.7-3.6,3.8-.9,7.9-2.2,10.5-4.3.3-.2.6-.2.8,0,.1.1.1.3.1.5-1.5,7.2-17.8,13.7-24,15.6-.5.1-.8.5-1,.9l-2.3,5.1c0,.1,0,.3.1.3h.2c2.9-2.2,5.5-3.2,9.2-3.8,3.4-.5,6.1-1,8.6-2.4.3-.1.7,0,.8.2h0c0,.2,0,.5,0,.8-.9,2.1-2.3,4-4.4,5.5-5.3,4-13.5,7.7-17.9,10-.7.3-1.2.9-1.4,1.6l-3.1,9.6c0,0,0,.2.1.2h.2c1.4-2,3.1-3.6,4.8-5,3.1-2.3,7-3.6,10.7-5.4,2.1-1.1,4.2-2.4,6.3-3.9.2-.1.5-.1.7,0,0,0,0,.1,0,.2,0,.2,0,.5,0,.9-1.6,4.2-5.7,7.9-9.4,10.7-4.6,3.6-9.6,7.2-14.9,10.6-.6.4-1,1-1.2,1.7l-2.3,11.3c0,0,0,.2.1.2h.1s.5-.8,1.3-2.3c2.3-4,5.3-7.2,9.1-9.3,4.2-2.4,7.7-4.6,10.5-6.7h.4c.3-.3.6-.1.8.2v.3c-1.7,5-5.1,8.7-9.5,12.8-4.1,3.9-8.5,7.6-13.2,11.2-.3.3-.5.6-.6,1l-1.5,12.9c0,.1.1.3.3.3s.2,0,.3-.1c2.5-4.9,4.7-8.7,8.9-12.2,3.4-2.9,7.1-5.9,10.9-8.9.2-.2.6-.1.8,0,0,.1.1.3.1.5-.8,3.5-2.2,6.7-4.4,9.7-4.4,5.9-9.6,11.3-15.8,16.5-.5.5-.9,1.1-.9,1.8l-.2,13.5c0,.1.1.3.3.3s.2,0,.3-.2c1.4-3.2,2.7-5.9,3.9-8,3.5-6.2,9.3-11.1,15.6-15.4.3-.2.6-.1.8.1s.1.2,0,.3c-.7,10.6-11.7,22.3-19.9,28.2-.2.1-.3.5-.3.8l1.6,13.1c0,0,0,.1.2.1,0,0,.1,0,.1-.1,1.9-5.1,3.1-8.8,5.9-12.8,3.2-4.6,7.1-9.2,11.5-14,.2-.2.5-.2.7,0,0,0,.1.2.1.3.5,11-9.7,22.3-17.3,29.4-.3.2-.3.5-.3.9.8,5.1,2,10.2,3.6,15.2,0,0,.1.1.2.1,0,0,0,0,.1,0,2.3-5.3,2.7-13.1,5.7-19.2,2.6-5.3,5.9-10,9.9-14.1.2-.2.5-.2.6,0,0,0,.1.1.1.3,1.4,11.5-8.7,24.9-15.8,33.7-.3.5-.5,1.1-.3,1.6l3.7,10.5c0,.1.2.2.3.1,0,0,.1-.1.1-.2.5-3.8,1.2-7,1.7-9.6,1.6-8,6.1-15.5,11.6-21.5.2-.2.5-.2.8,0h0c.3.5.5,1.2.5,1.9,1.2,10.3-7.7,23.1-13.8,31.1-.3.3-.3.8-.1,1.2l5.9,12.4c0,.1.2.1.3,0,0,0,.1,0,.1-.1,2-11.5,3.6-24.1,10.9-33.4.2-.3.5-.3.8,0,0,0,.2.2.2.3.8,3,.9,5.9.5,8.9-1.3,10-4.8,19.1-10.7,27.3-.1.2-.1.4,0,.6l4.8,8.3c0,.1.3.2.5.1.1,0,.2-.2.2-.3.1-7.8,2-13.5,5.7-21.8,2.3-5.3,3.9-9.4,4.8-12.4,0-.3.4-.5.7-.3.2,0,.3.2.4.4.5,2.4.7,5.3.4,8.8-.7,10.4-3.8,20.2-9.4,29.2-.1.2-.1.4,0,.6,4,5.7,8.5,11.2,13.7,16.6v-.5Z"/>
  <path class="cls-103" d="M447.8,419.5c-2.2.3-4.5.3-7-.1,5.7-5.6,10.5-11.5,14.5-17.6.2-.3.2-.8,0-1-4.4-7-7.4-14.7-9-23.3-.8-4.5-1-9.3-.3-14.3,0-.2.1-.4.3-.5s.5-.1.6,0h0c1.4,5.1,3.5,9.4,6,14.9,3.1,6.6,4.6,12.5,5,19.5,0,.1.1.2.2.2,0,0,.1,0,.1,0l4.8-7.7c.2-.4.2-.9,0-1.2-4.4-5.6-7.5-12.4-9.6-19.3-1.5-5.1-2.5-11.4-1.1-16.5.1-.4.5-.6,1-.5.1,0,.3.1.4.3,6.2,8.9,8.7,19.6,10.2,30.3.1.7.3,1.8.7,3.2,0,0,.1.1.2.1,0,0,0,0,.1,0l5.6-12.4c.3-.5.2-1.2-.2-1.8-6.4-8.3-16.1-21.5-13.7-32.5,0-.3.3-.5.6-.4.1,0,.2,0,.3.1,5.9,6.5,10.5,14,12.1,22.5.8,4.4,1.4,7.4,1.6,8.7,0,.1.2.3.3.2,0,0,.2,0,.2-.2l3.6-10.7c.2-.5,0-1.1-.3-1.5-4.8-5.5-8.8-11.3-12.1-17.3-2.7-5.1-4.5-10.6-4.3-16,0-.3.3-.7.7-.6.2,0,.3,0,.5.2,6.1,7.1,10.6,13.4,12.6,22.4,1.1,4.8,1.6,7.2,3,10.4,0,.1.3.3.4.2,0,0,.1-.1.2-.2l3.2-14.3c.1-.7,0-1.4-.6-1.8-7.9-6.6-17.7-18-17.3-28.8,0-.3.2-.5.5-.5s.3,0,.3.1c3.3,3.6,6.4,7.1,9.2,10.5,2.1,2.7,4.4,5.8,5.7,9.2,0,.2,1,2.4,2.7,6.5,0,.1.1.1.3.1s.1,0,.1-.1l1.5-12.8c0-.4-.1-.8-.5-1-7.6-5.3-13.6-12-17.9-20.2-1.4-2.6-2-5.3-2.1-7.9,0-.2.1-.3.3-.4h.2c6.6,4.2,12.3,8.9,16.1,15.7,1.1,1.9,2.3,4.4,3.7,7.5,0,0,.1.1.2,0,0,0,0,0,0-.1l.2-13.5c0-.5-.3-1.1-.7-1.4-5.5-4.4-10.6-9.4-15.2-15-2.6-3.1-5.3-7.3-5.7-11.3,0-.3.2-.6.5-.6s.3,0,.4.1c5.3,4.1,8.9,6.9,10.7,8.4,4.2,3.5,6.9,7.8,9.4,12.6,0,0,.1.1.2,0,0,0,.1-.1,0-.2l-1.6-12.9c0-.6-.4-1.2-1-1.6-6.7-4.9-12.7-10.2-18-15.8-2-2.2-4.4-5.6-4.5-8.5,0-.1.1-.3.2-.3h.1c2.7,1.8,5.1,3.7,8.2,5.4,6.4,3.6,10.2,6.6,13.5,13,0,.1.2.1.3,0,0,0,.1-.1.1-.2l-2.5-11.1c-.1-.7-.5-1.3-1.2-1.7-5.7-3.8-24.9-15.7-24.6-22.1,0-.3.2-.4.5-.4s.2,0,.3,0c2,1.6,4.4,3.3,6.9,4.3,3.2,1.4,8.1,3.3,10.7,5.4,1.6,1.3,3.1,2.8,4.5,4.6h.2c-1.2-3.9-2.1-6.7-2.8-8.7-.5-1.5-.9-2.3-2.3-2.9-4.6-2.3-12-5.7-17.1-9.2-2.3-1.6-4.8-3.9-4.9-6.7,0-.1.1-.3.3-.3h.1c2.8,1.3,5.9,2.1,9.3,2.6,3.8.5,6.6,1.5,9.2,3.7h.2c-.4-1.1-1-2.5-1.7-4-.7-1.4-1.4-2.2-2.9-2.7-6.8-2.1-12.9-5.1-18.4-8.9-2.3-1.6-3.8-3.6-4.6-6,0-.3,0-.5.3-.7h.4c3.4,2.1,7.3,3.6,11.6,4.4,1.6.3,4.2,1.4,7.6,3,0,0,.2,0,.2,0h0c0-.1-4.2-7.4-4.2-7.4-.2-.3-.5-.5-.8-.5-7-.5-14.8-2.7-20.2-7.3-.1-.1-.2-.3,0-.5,0-.1.3-.1.4-.1,2.6,1,4.7,1,7.4.4,1.5-.3,2.9-.7,4.3-.3,1.9.6,3.6,1.6,5.2,3h.2c0,0,0-.1,0-.2h0l-5.1-7.2c-.1-.2-.3-.3-.5-.3s-1.2.1-3.1.4c-5.9.9-10.9-.5-15.2-4.3-.2-.2-.2-.5,0-.8,0,0,.2-.1.3-.1l9.9-1.2h.5l4.2,1.4c0,0,.2,0,.2-.1h0c0-.1-5.2-5.8-5.2-5.8-.1-.1-.3-.2-.4-.1-2.8.5-5.4.7-7.7.8-3.6,0-9-.8-10.9-4-.1-.2,0-.5.1-.5h.1l8.7-1.4c1.2-.2,2.4-.2,3.6,0l1.5.2s0,0,0,0h0l-4.8-5.3c-.2-.2-.5-.3-.7-.2-7.3,2.4-14.1,2.3-20.1-3.1-.2-.1-.2-.5,0-.6,0,0,.1,0,.2-.1,2-.7,4.3-1.6,7.1-2.6,1.1-.4,3-.5,5.6-.2.1,0,.2,0,.3-.2,0,0,0-.1,0-.2l-4.4-3.2c-.2-.1-.5-.1-.7,0-4.4,3.1-9.4,4.1-15,3-.2,0-.3-.2-.3-.4,0,0,0-.1,0-.2,3.3-3.3,5.9-6.4,11.1-5.9.1,0,.2,0,.2-.1s0-.1,0-.2l-3.9-2.8c-.3-.2-.7-.2-1,0-5.4,4.2-12.6,5.7-17.7-.2,0,0,0-.2,0-.3h0c2.7-2,5.5-3.1,8.4-3.3h.3l4.8.5c0,0,.1,0,.2-.1,0,0,0-.1,0-.1l-7.8-4.8c-.2-.1-.5-.1-.7,0-4.8,3.4-12.6,5.3-17.8,1.2-.3-.2-.3-.7-.1-1,0,0,0,0,0,0,4.4-3.6,8.1-3.6,13.3-2.9,0,0,.1,0,.1-.1h0c-6.4-4-12-6.4-20.8-10.1,0,0-.1-.1,0-.2h0c0,0,.1-.1.2-.1,5.1,1.6,8,2.6,8.5,2.9,6.1,2.5,10.8,4.5,14.1,5.9,0,0,.2,0,.3-.1h0c-.9-2-2-3.6-3.4-4.8-5.2-4.8-10.1-8.9-10.9-16.3,0-.2.1-.4.3-.5.1,0,.3,0,.3.1,1.7,2,3.5,3.9,6,5.7,5.8,4.1,11.3,8.2,8.9,16.3,0,.3,0,.5.3.7l12.5,7.2c.2,0,.4,0,.5-.1v-.3c-1.7-5.5-5-8.7-9.7-14.4-2.5-3.1-4-6.4-4.5-10,0-.6,0-.9.5-.9s.1,0,.2.1l1.7,2.1c.2.3.5.5.8.8,5.5,4.2,11.1,7.9,12.1,14.7.4,2.7.5,5.5.1,8.3,0,.4.1.8.5,1l12.9,9.4h.2c-3.8-9.3-12.5-14.8-12-25.5,0-.2.2-.4.4-.4s.3,0,.3.2c3.8,6.6,10.2,11.5,13.6,18,1.7,3.3,1.9,6.6.7,9.8-.1.3,0,.6.2.8l8.7,7.8c0,0,.2,0,.3,0v-.2c-1.6-6.6-4.1-11.1-7.9-19-.6-1.2-.5-2.7.3-3.9l.5-.8c.4-.6,1.2-.8,1.8-.3.2.1.4.4.5.6,1,2.8,3,6.7,6,11.6.6,1,1.3,2.9,2,5.8.8,2.8.5,5.6-.5,8.3-.1.3,0,.8.2,1.1l6.4,7c0,.1.3.1.3,0,0,0,0-.1,0-.2-1.1-6.9-3-12.6-4.6-19-.5-2.3,0-4.2,1.6-5.6.3-.3.9-.3,1.2,0,0,.1.1.3.2.4,1.8,10,8.4,17,4.4,27.3-.1.3,0,.8.1,1.1l5.1,6.8c0,0,.2.1.3,0h0c0-.5,0-.8,0-1.2-2.2-7-3.7-15,.7-21.3.2-.3.5-.3.8-.1,0,0,.2.1.2.3,1.2,3.1,2,5.7,2.6,7.7,1.8,6.6,1.1,12.2-1,18.6,0,.3,0,.6,0,.9l6.4,10.9c0,.1.2.1.3,0,0,0,0,0,.1-.1v-.7c-1.8-8.2-4.4-15.5,1.3-23.2.1-.2.4-.2.6,0,0,0,.1.1.1.2,1.7,4.3,2.6,8.7,2.7,13.2.1,4.4-1.3,8.9-2.9,13.2-.1.4-.1.8,0,1.2l4.2,8.9c0,.1.2.1.3,0,0,0,.1-.1.1-.2-.5-2.8-.6-5.9-.5-9.4,0-1.6.4-3.1,1-4.2,2-3.8,3-5.3,3.2-8.4,0-.2.2-.3.4-.3s.3.1.3.3c.3,1.5.5,2.9.8,4.2,1.3,6,1,12-.8,17.8-.7,2.1-1.3,3.9-1.8,5.4-.2.5-.2,1.2,0,1.8l4.2,10.6s0,.1.1,0,.1,0,0-.1c-1.4-9.3.1-17.6,4.6-25.1.1-.2.4-.3.6-.1.1,0,.2.2.2.3,2,11.4,3,22.1-2.2,32.9-.3.8-.5,1.6-.3,2.5l3.2,12.3c0,0,0,.1.2.1s.1,0,.1-.2c0-5.9.6-11.7,1.8-17.2.8-4,2.1-8.4,4.6-11.5.2-.2.4-.3.6-.1,0,0,.1.1.2.3,2.4,12.9,2.3,25.8-5.2,36.8-.3.5-.5,1.2-.4,1.8l1.6,9.8s0,.1.1,0c0,0,0,0,0,0,2.1-9.5,6.2-18.2,12.2-26.3.3-.3.5-.5.7-.6.1,0,.3,0,.3.1h0c-.3,7-1.3,13.4-3.1,19.3-1.6,5.3-4.5,9.8-8.7,13.5-1,.8-.8,1.8-.7,2.9.5,6.1.8,9.4.8,9.9s.1.1.2.1c0,0,.1,0,.1-.1,1.1-3.5,2.9-7.1,5.2-10.9,2.9-4.6,5.9-9.2,9.3-13.7.2-.3.4-.5.5-.5s.3,0,.4.1h0c0,12.5-4.2,24.7-15.2,31.4-.3.2-.5.5-.5.8l-.2,12.6c0,0,0,.2.1.2s.1,0,.1,0c3.8-7,7.6-13.7,12.4-19.9,1.4-1.8,2.9-3.3,4.4-4.6.2-.1.5-.1.6,0,0,0,.1.2.1.3.4,12.2-5.8,23.7-17.3,28.6-.6.3-1.1.9-1.2,1.6l-1.2,10.6c0,0,0,.2.2.2,0,0,.1,0,.1,0,5.1-8.1,11.7-14.5,19.9-19,.3-.1.6,0,.8.2,0,.1,0,.2,0,.3-1.2,9.9-5.9,17.7-14.6,22-2,1-4,1.5-6.8,2.4-.4.1-.8.5-.8.9l-3.5,14.1h0c.1,0,1-1,2.6-3,5.1-6.4,13-11.4,20.8-14.3.2,0,.4,0,.5.2h0v.6c0,.1-.1.3-.1.3-2,5.5-4.6,10.5-8.1,15-4.6,6-10.7,9.3-18.2,9.8-.4,0-.7.3-.8.6l-2.6,6.8c0,0,0,.2.1.3h.2c2-1.3,4.4-2.4,7.2-3.3,4.5-1.5,9.6-3.1,15.2-4.8h.3c.2.1.3.3.1.5-6.5,10.2-15.4,16.5-27.7,17.4-.2,0-.3.1-.5.3l-6.1,10c0,.1,0,.3,0,.3h.3c7.5-5.1,15.8-8,25-8.7.5,0,1,0,1.2.1.1,0,.2.3.2.4h0c-2.5,2.9-5.4,5.7-8.6,8.4-5.1,4.5-11.2,6.8-18.2,6.8h-4.4c-.4,0-.8.2-1.1.5l-9.4,11.3.5.4Z"/>
  <g>
    <path class="cls-102" d="M402.7,431.7l14.5,17.9c.2.3.2.7,0,1l-1.5,1.4c-.3.3-.8.3-1,0h0l-12.5-15.5-2.4-3c-.1-.1-.1-.4,0-.5.4-.4,1-.9,1.7-1.4.5-.3.8-.2,1.2.3h0Z"/>
    <path class="cls-102" d="M400.5,438.5c3,4.3,5.9,8.6,8.9,13,1,1.5,1.1,4-.3,5.4-1.7,1.6-3.6,2.5-5.7,2.7-.2,0-.4.1-.5.3-.5,2.3-2,3.8-4.4,4.6-.8.3-1.6,0-2.3.2-.2,0-.4.2-.5.4-1.4,2.7-4.4,3.8-7.7,5.7l-6.2,3.6c-.3.2-.8,0-1-.3l-1.4-2.5c-.2-.3,0-.8.3-1l4.2-2.5c.2-.1.3-.3.1-.5-.8-1.5-1.4-2.7-1.9-3.5-1.4-2.3-3.1-.6-4.2.7-.2.2-.5.2-.8,0h0l-1.9-2c-.2-.3-.3-.6,0-.9,2.4-3.1,6.2-4.4,8.8-1,1.2,1.6,2,2.9,2.4,4,.3.8,1.1,1.2,1.8.9,0,0,.1,0,.3-.1l2.4-1.4c1-.5,1.3-1.7.9-2.7-1.8-3.9-5.5-7.8-.1-11.1,2.4-1.4,4.5-1.2,6.4.8.6.7,1.8,2,3.6,4,.5.5,1.3.7,1.9.3l2.3-1.6c.5-.3.5-1,.3-1.4l-10.8-15.6c-.2-.3-.1-.7.1-.9h0l1.8-1.2c.3-.2.6-.1.8.1h0l2.3,3.4h0ZM396.7,454.7c-.6-.9-1.8-1.1-2.7-.5q-.6.4,0,0l-.3.2c-.9.6-1.1,1.8-.5,2.7l1.8,2.7c.6.9,1.8,1.1,2.7.5h0l.3-.2c.9-.6,1.1-1.8.5-2.7l-1.8-2.7Z"/>
    <path class="cls-102" d="M240.6,472.7c.6.2,1.1.5,1.5.8.2.2.3.5.1.7-1.1,2.3-2.7,5.4-3.3,8-.1.9.3,1.8,1.2,2l2.3.8c.6.2,1.3-.1,1.5-.8l5.9-17.8c.1-.3.5-.5.8-.4l2,.7c.3.1.5.5.4.8h0l-5.6,16.9c-.4,1.2.3,2.4,1.4,2.8h0l1.9.6c.8.3,1.6-.1,1.9-1h0c0,0,4.9-17.8,4.9-17.8.1-.4.5-.7,1-.5h0l1.7.5c.4.1.6.5.5,1-2.7,9.8-4.3,15.3-4.6,16.7-1,3.7-2.2,6.3-6.5,5.2-2.3-.6-4-1.4-5-2.4-.2-.2-.4-.3-.7-.3-1.5.1-3-.1-4.6-.7-.5-.2-1.4-.8-2.6-1.8-1-.8-1.8-1.3-2.7-1.6-1.6.2-2.9-.2-4.2-1.2-.9-.8-1-2.2-2.5-1.9-2.3.5-4.7-1-5.7-2.9-.1-.2-.4-.3-.6-.3-1.5.4-3.5-.1-5.9-1.6-7.2-4.3-13.2-8-18.1-11.1-.2-.1-.4,0-.5,0-3.4,4.3-7.4,6.4-11.5,1-.3-.5-.3-1.2,0-1.6l1.5-2.1c.1-.2.5-.3.7-.1h0l2.3,2.5c.5.6,1.6.7,2.2,0h0l1.6-1.5c.3-.3.3-.8,0-1.1,0,0-.1-.1-.2-.1-2.2-1.2-4.8-3.8-3.2-6.7,1.8-3.1,3.4-5.2,4.8-6.1,2.9-2.1,5.3-.7,7.5,1.4,3.1,3-.8,7.4-2.8,10.1-.2.3-.1.7.1.9h0l10.4,6.4c.3.2.8.1,1-.2h0c0-.1,1.5-4.1,1.5-4.1.2-.6,0-1.3-.5-1.6-1.3-1-2.5-1.4-3.6-1.4s-.8-.3-.8-.8,0-.3.1-.5l1.2-1.8c.4-.7,1.2-1,2-.8,7.1,2.3,6.2,5.9,3.6,11.7-.5,1.1-.3,1.9.7,2.5,1.6,1.1,3.1,1.9,4.3,2.3.6.2,1.3,0,1.6-.6l4.5-7.9c0-.2.3-.3.5-.1l1.8.8c.3.1.5.6.3,1h0c-1.5,3.1-2.5,5.5-3.1,7.1-.3,1-.1,1.8.5,2.5,1.4,1.4,2.9-.5,3.5-1.7,1.2-2.3,2.1-4.3,2.9-6.1.1-.4.6-.5,1-.4h0l1.8.8c.3.1.5.5.3.9h0l-3.2,7c-.1.3-.2.7-.1,1,.2,1.5,1,2.2,2.4,2,.2,0,.4-.1.6-.3,1.7-1.6,3.2-5.7,4.2-8.1,0-.2.3-.3.5-.3s.7.1,1,.3v.3ZM193.6,458.3l2,1.5c.4.3,1,.2,1.2-.2h0l2-2.7c.7-.9.7-2,0-2.6h0l-.9-.7c-.7-.5-1.8-.2-2.5.7h0l-2,2.7c-.3.4-.2,1,.2,1.2h0Z"/>
    <path class="cls-102" d="M298.8,497.5c-4.4-.7-4.6-5.3-4.6-9,0-4.4-.2-9.4-.3-15,0-.3.2-.5.5-.6h.8c0,0,1.6,0,1.6,0,.2,0,.4.2.4.4.2,10,.3,15.4.3,16.3,0,2,.3,4,2.9,3.9,1.8,0,3.6-.3,5.3-1,.3,0,.4-.3.3-.6,0-.1-.1-.2-.2-.3l-4.3-2.7c-.1,0-.3-.2-.3-.4-.3-1.4-.5-2.3-.3-2.7,1.4-3.8,4.3-6.4,8.3-5.3,4.7,1.4,4.1,7.4,2.5,10.7-.1.3,0,.6.3.8h.2c2,.2,3.8.1,5.4-.2.4,0,.6-.5.5-.9l-3.1-19.1c0-.3.1-.5.4-.6h0l2.2-.3c.3,0,.6.1.6.5,1,6.1,1.8,11.7,2.7,16.7.3,2.3.8,5-.4,6.4-1.2,1.4-2.3,1.4-4.5,1.7-2.5.4-4.6-.2-6.5-1.8-.1-.1-.3-.1-.5,0-2.9,2.5-6.4,3.5-10.2,3.2h0ZM304.5,486.6l3.7,2.9c.1.1.4,0,.5,0h0c1.3-1.8,1.4-3.9.3-4.8h-.1c-1.2-1-3.1-.3-4.4,1.4h0c-.1.3,0,.5,0,.6h0Z"/>
    <path class="cls-102" d="M349.2,488.2l-2.5-.7c-.2,0-.4,0-.5.2-1.2,2.1-3.1,3.1-5.9,3.1-3.8,0-5.3-7.1-5.5-9.9-.3-3.7,3-5.3,6.2-4.9.3,0,.8,0,1.1-.2l1.2-.7c.3-.2.8,0,1,.3h0c0,.1,1.6,5.3,1.6,5.3.2,1,.7,1.9,1.4,2.8.4.5,1.1.7,1.7.5l4.2-1.7c.5-.2.9-.8,1-1.4,0-2.6-1.8-6.3-2.7-8.7-.1-.3,0-.6.3-.7h0l2.2-.9c.3,0,.5,0,.6.3,1.6,3.4,2.7,6.6,3.3,9.4.5,2.6-.3,4.4-2.5,5.6-1.7,1-3.8,1.7-6.3,2.2h0ZM342.4,480.9c-.3-.8-1.1-1.2-1.8-1l-1.3.4c-.8.3-1.2,1.1-1,1.8h0l1.1,3.3c.3.8,1.1,1.2,1.8,1h0l1.3-.4c.8-.3,1.2-1.1,1-1.8h0s-1.1-3.3-1.1-3.3Z"/>
    <ellipse class="cls-102" cx="194.9" cy="437.3" rx="2.7" ry="2" transform="translate(-276.4 352.7) rotate(-55.8)"/>
    <path class="cls-102" d="M182,452.7c1.2,1,2.4.6,3.8-.9,1.6-1.8,3.8-4.4,6.7-8,.2-.3.6-.3.9-.1l1.6,1.2c.3.2.4.7.1,1h0c-1.8,2.3-4.2,5.1-7,8.4-2.4,2.8-5.6,4.4-8.8,1.7-3.2-2.7-2.3-6.1.1-9,2.8-3.4,5.1-6.2,7-8.4.3-.3.8-.3,1,0h0l1.4,1.4c.3.2.3.6,0,.9-3,3.5-5.2,6.1-6.7,8.1-1.3,1.6-1.4,2.9-.2,3.9h0Z"/>
    <path class="cls-102" d="M358.5,469.7c-.1-.3,0-.5.3-.7l2-1c.2,0,.5,0,.6.2l4,8.3c.2.4.7.6,1.2.4l5.7-2.7c.3-.1.4-.3.5-.7.3-2.5-1.9-6.1-3.4-8.9-.2-.3,0-.8.3-1h0l2-1c.3-.1.8,0,.9.3h0c.8,1.8,1.7,3.6,2.7,5.6,1.5,2.9,2.7,7.3-.9,9.2-2.4,1.4-4.6,2.3-6.8,3-.1,0-.2.2-.2.3h0c1.9,3.6,2.5,7.2-1.4,9.8-.3.2-.8.1-1-.2h0c0,0-1.1-2.4-1.1-2.4-.2-.4,0-1,.4-1.2,1.2-.6,1.3-1.8.5-3.6-1.2-2.6-3.2-7.2-6.1-14.1h-.1Z"/>
    <ellipse class="cls-102" cx="339.4" cy="469.2" rx="2" ry="2.7" transform="translate(-114.9 110.1) rotate(-15.8)"/>
    <ellipse class="cls-102" cx="334.9" cy="470.6" rx="2" ry="2.7" transform="translate(-106.5 98.1) rotate(-14.4)"/>
    <rect class="cls-102" x="322.6" y="469.8" width="3.3" height="24.8" transform="translate(-88.2 72.9) rotate(-11.3)"/>
    <ellipse class="cls-102" cx="270.4" cy="474.5" rx="2.7" ry="2" transform="translate(-241.2 665.6) rotate(-80.8)"/>
    <ellipse class="cls-102" cx="275" cy="475.1" rx="2.7" ry="2" transform="translate(-231.6 686.7) rotate(-82.6)"/>
    <ellipse class="cls-102" cx="203.2" cy="476.9" rx="2.7" ry="2" transform="translate(-310.6 408.2) rotate(-59.3)"/>
    <ellipse class="cls-102" cx="379.7" cy="481.9" rx="2" ry="2.7" transform="translate(-166.6 202.7) rotate(-24.7)"/>
    <path class="cls-102" d="M276.1,482.2c.2,0,.4.1.5.3h0c0,.1-.9,7.7-.9,7.7-.1,1.4.8,2.6,2.2,2.8h.8c1.2.2,2.4-.6,2.6-1.8.5-2.3.5-4.8,1.4-6.4,1.3-2.3,3.5-2.9,6.6-2,2.1.6,3.3,2.3,3.3,5.1.1,3.6.2,9.2-4.1,10.1-1.8.4-3.8,0-5.7-1.3-.2-.1-.4-.1-.6,0-2.1.7-4.3.7-6.5,0-.3-.1-.7-.3-1-.6l-.9-1c-.2-.2-.5-.2-.7,0-3.5,2.1-8.7,1.1-8.7-3.8s.3-4.1.8-6.2c.8-3.1,2.7-4.4,5.7-3.8,1.7.3,3.1,1.5,5.2,1.2v-.2ZM272.7,487.1c.1-.8-.5-1.6-1.3-1.8h0l-1.2-.2c-.8-.1-1.6.5-1.8,1.3q0,.5,0,0l-.5,3.4c-.1.8.5,1.6,1.3,1.8l1.2.2c.8.1,1.6-.5,1.8-1.3h0l.5-3.4ZM289.3,488.7c0-1.1-.8-2-1.9-2.1h-.3c-1.1,0-2,.8-2.1,1.9h0v3.2c-.1,1.1.7,2,1.8,2.1h.3c1.1,0,2-.8,2.1-1.9h0v-3.2Z"/>
    <ellipse class="cls-102" cx="375.5" cy="484" rx="2" ry="2.7" transform="translate(-172.2 209.7) rotate(-25.6)"/>
    <ellipse class="cls-102" cx="360.4" cy="490.5" rx="2" ry="2.7" transform="translate(-145.4 152) rotate(-19.9)"/>
    <ellipse class="cls-102" cx="355.9" cy="492.2" rx="2" ry="2.7" transform="translate(-148 153.2) rotate(-20.2)"/>
  </g>
  <path class="cls-103" d="M294.2,206c52-1.7,96.3,39.3,98,91.4s-39.8,95.9-91.9,97.6c-52,1.7-96.3-39.3-98-91.4s39.8-95.9,91.9-97.6Z"/>
  <g>
    <path class="cls-103" d="M279.8,276.9c.5,1.3-1,2-1.9,2.6-.4.1-.7.1-.8,0-.3-.3-.4-.8-.2-1.1h0c1-1.2,1.9-1.6,2.9-1.5h0Z"/>
    <path class="cls-103" d="M287.6,348.4l9.2,8.6c0,0,.1.2,0,.3v.2c-.1.1-.3.3-.5.2,0,0,0,0-.1,0l-5.9-5.5-5.8-5.3c-.1-.1-.1-.3,0-.5s.3-.1.4,0c.9.4,1.7,1.2,2.6,2.2h0Z"/>
    <path class="cls-103" d="M310.3,365.3c-1.1-.2-1.7-.6-1.9-1.2,3.3.5,5.9-.5,8-2.8.3-.3.8-.4,1.2,0,.1,0,.2.2.3.3,0,0,0,.3-.1.6-.8,1.8-2.1,2.9-4,3.2-.5,0-1.6,0-3.4,0h0Z"/>
  </g>
  <g>
    <ellipse class="cls-103" cx="306.7" cy="262.8" rx=".6" ry="2.9" transform="translate(-85.4 165.8) rotate(-26.7)"/>
    <ellipse class="cls-103" cx="311.9" cy="264.3" rx="2.1" ry=".6" transform="translate(-42.5 468.2) rotate(-70.2)"/>
    <ellipse class="cls-103" cx="304.6" cy="276.3" rx=".7" ry=".4" transform="translate(-2 550.4) rotate(-84)"/>
    <ellipse class="cls-103" cx="308.8" cy="284.3" rx="2.5" ry=".7" transform="translate(2.2 570.9) rotate(-85.7)"/>
    <path class="cls-103" d="M306.7,353.9c-.4.5-.6,1.1-.5,1.7,0,.4-.2.8-.6.9-.2,0-.4,0-.5-.1-.7-.4-1.2-1-1.6-1.8-.1-.3,0-.6.3-.8h2.8c0-.1.2,0,.2,0h0c0,.1,0,0,0,0Z"/>
    <path class="cls-103" d="M291.7,363c.2,0,.4.1.4.3h0v.2c0,.1,0,.2-.2.3-4.1,1-7.4.3-9.9-2-.3-.3-.4-1-.1-1.4h0c.3-.4.8-.5,1.2-.2h0c2.7,2.3,5.6,3.2,8.5,2.7h.1Z"/>
  </g>
  <g>
    <path class="cls-103" d="M289.9,131.2h-1.5l-5.5.6c-3.5,0-7.1.4-10.7,1.4,0,0,0-.2,0-.3l-8.7,1.6c-.6.1-1.2-.3-1.2-.9v-.2l.3-17c0-.3.1-.5.4-.5,7.4-2.7,14.8-4.5,22.4-5.7l5.9-.5c.3,0,.5.1.5.4h0c-2,6.9-2,13.7,0,20.5,0,.1,0,.3-.1.4-.3.2-.8.3-1.6.1h0Z"/>
    <path class="cls-103" d="M306.5,109.8c8.8,1.1,17.4,3.2,25.8,6.4.1,0,.2.2.2.3l-.3,18c0,0,0,.2-.1.2-.3.1-.5,0-.9-.1-.1-.1-.4-.2-.8-.3-6-1.3-12.1-2.2-18.2-2.7l-8.6-.5c-.3,0-.5-.3-.5-.6h0c1.9-6.9,1.9-13.7,0-20.4,0-.1,0-.3.2-.4h3.2Z"/>
    <path class="cls-103" d="M322.3,109s0,0,0,0h0c-1.1,0-2-.9-2-2h0c0-1.2.9-2.1,2-2.1h0s0,0,0,0h0v4Z"/>
    <path class="cls-103" d="M342.5,118.4c0-.3.2-.5.5-.5s.3,0,.4.2c3.3,5.7,5.3,12,5.8,19,.1,1.3-.1,2.1-.8,2.7-1.5,1.2-3.3,2.9-5.5,5.1-.2.2-.5.2-.7,0,0,0-.1-.2-.1-.3l.5-26.1h-.1Z"/>
    <path class="cls-103" d="M252.2,118.4l.4,26.1c0,.3-.2.5-.5.5-.1,0-.3,0-.3-.1-2.2-2.1-4-3.8-5.5-5.1-.6-.5-.9-1.4-.8-2.7.6-7,2.5-13.3,5.9-19,.1-.2.4-.3.6-.1.1,0,.2.2.2.4h0Z"/>
    <path class="cls-105" d="M297.7,86c.6.9,1.2,1.8,1.8,2.7,1,1.4,2.1,2.9,3.3,4.4-1.2.3-2.2.6-3.4,1,2.3,1.4,3.4,3.2,2.3,6,1.6.1,3,.3,4.4.4,6.6.3,13,1.2,19.3,2.9,2.7.8,5.4,1.6,7.7,3.3.4.3,1,.5,1.6.6,3,.4,6.1.8,9.1,1.2,3.6.5,6.4,2.3,8.1,5.5,2,3.8,3.6,7.7,4.8,11.7,1.1,3.4,1.7,6.9,2.1,10.5,0,.8,0,1.5,0,2.2-1.8,1-3.6,1.8-5.3,2.9-5.9,3.8-10.2,8.9-13.9,14.7-.7,1.2-.7,1.7-2.5,1.2-2.2-.6-4.4-1.2-6.7-1.7-4.6-1.2-9.2-2.2-13.9-2.6-4.2-.3-8.4-.8-12.6-1.2-1.2-.1-2.3,0-3.5,0-5.5,0-10.9,0-16.3.6-3.6.5-7.2.5-10.9,1.2-4.4.8-8.6,2-13,3-1.5.3-3,.7-4.6,1-4.9-8.3-11.1-15.2-20.3-19.1.3-2.3.3-4.4.8-6.6,1.2-6,3.3-11.7,6.1-17.2,1.6-3.2,4.2-5.3,7.9-5.9,3.1-.5,6.3-.8,9.4-1.3.5,0,1.2-.2,1.6-.5,2.9-2.1,6.3-3.2,9.7-4,4.5-.9,9.1-1.6,13.7-2.3,2.1-.3,4.2-.3,6.4-.5.5,0,1.2,0,1.8-.1-1.1-2.7-.1-4.6,2.4-6-1.2-.3-2.3-.6-3.4-1,1.8-2.5,3.5-4.8,5.2-7.2h.7ZM262.5,116.3v18.5c3.3-.6,6.6-1.2,9.8-1.7,5.7-.9,11.4-1.5,17.2-1.6.8,0,1.5-.2,2.3-.3-2.2-7.1-2.2-14,0-21.1-10.2.4-19.8,3-29.3,6.4h0ZM332.1,116.3c-10.2-4.1-25.1-6.9-29.1-6.2,2,6.9,2,13.8,0,20.8,4.9.5,9.8.8,14.6,1.4s9.7,1.4,14.5,2.1v-18.2h0ZM252.2,118.2c-.1,0-.3,0-.4,0-2,2.7-3.3,5.6-4.2,8.7-.9,3.4-1.4,7-2.3,10.4-.3,1.1.1,1.8.9,2.5.7.5,1.3,1.2,1.9,1.8,1.4,1.2,2.8,2.5,4.2,3.8.1,0,.2,0,.3-.1-.1-9-.3-18-.5-27ZM342.5,118.2c-.2,9-.4,18-.6,27,.1,0,.3,0,.3.1,2.2-2,4.4-4.1,6.6-6.2.2-.2.2-.7.2-1.1-.1-3.6-1-7-2-10.5-.9-3.4-2.3-6.6-4.6-9.4h0ZM240.7,137.4c2,0,3.3-1.2,3.5-3.1,0-1.9-1.2-3.3-3.1-3.4-2.1,0-3.6,1.2-3.6,3.1,0,2,1.2,3.3,3.3,3.4ZM350.1,134.2c0,1.8,1.6,3.1,3.6,3.1s2.9-1.8,2.7-3.3c-.1-1.8-1.4-3.1-3.3-3-1.8,0-3.1,1.4-3.1,3.2h0ZM242.3,130.1c1.6,0,2.7-1.2,2.7-2.9s-1.2-2.8-2.8-2.8-2.9,1.2-2.8,3c0,1.6,1.2,2.7,2.9,2.7h0ZM355.2,127.3c0-1.4-1.4-2.8-2.9-2.9-1.4,0-2.8,1.4-2.9,2.8s1.4,2.7,2.9,2.8c1.5,0,2.9-1.3,2.9-2.7ZM244.4,123.8c1.7,0,2.7-1,2.7-2.7s-1.2-2.7-2.7-2.7-2.7,1.2-2.7,2.7,1.1,2.6,2.8,2.6h0ZM324,135.8c0-1.2-1.6-2.5-3-2.5s-2.9,1.2-2.9,2.6,1.4,2.6,3,2.5c1.4,0,2.9-1.4,2.9-2.6ZM328.4,135.2c-1.4,0-2.9,1.3-2.9,2.5s1.2,2.6,2.8,2.7c1.4,0,2.7-1.1,2.7-2.5s-1.1-2.7-2.6-2.7h0ZM305.5,137.2c1.4,0,2.9-1.4,2.9-2.7,0-1.3-1.6-2.5-3.1-2.5s-2.7,1.4-2.7,2.7c0,1.3,1.5,2.5,2.9,2.5ZM313,137.7c1.4,0,3-1.4,3-2.5s-1.6-2.5-3-2.5c-1.5,0-2.8,1.2-2.9,2.5,0,1.3,1.4,2.6,2.9,2.6h0ZM336.6,116.1c-1.4,0-3.1,1.4-3,2.7,0,1.2,1.4,2.4,2.8,2.5,1.5,0,2.7-1,2.7-2.5,0-1.5-1-2.7-2.5-2.7h0ZM296.8,126.8c1.3,0,2.9-1.4,2.9-2.5s-1.6-2.7-3.1-2.7c-1.4,0-2.4,1.2-2.4,2.6s1.2,2.6,2.6,2.6h0ZM336.3,137.2c-1.4,0-2.7,1.4-2.7,2.6s1.4,2.7,2.9,2.6c1.4,0,2.5-1.2,2.5-2.6s-1.2-2.6-2.7-2.6ZM339,132.2c0-1.4-1.1-2.6-2.6-2.6s-2.9,1.3-2.8,2.7c0,1.3,1.4,2.5,2.7,2.5s2.6-1.1,2.6-2.6h0ZM294.2,109.7c0,1.5,1.1,2.6,2.6,2.6s2.8-1.4,2.9-2.5c0-1.2-1.4-2.7-2.9-2.7s-2.6,1.1-2.6,2.6h0ZM275.2,136c0-1.6-.9-2.7-2.3-2.6-1.6,0-2.8,1.2-2.8,2.6s1.2,2.6,2.6,2.6,2.6-1.1,2.5-2.7h0ZM297,131.6c-1.6,0-2.7.9-2.7,2.4,0,1.5.8,2.6,2.3,2.7,1.4,0,3.1-1.2,3.2-2.5.1-1.2-1.2-2.5-2.7-2.5h0ZM257.2,137.2c-1.5,0-2.5,1.2-2.5,2.7s1.2,2.5,2.7,2.5c1.4,0,2.4-1.1,2.4-2.6s-1.2-2.6-2.7-2.6h0ZM336.3,128.3c1.5,0,2.7-1.1,2.6-2.5,0-1.4-1.1-2.5-2.5-2.5s-2.9,1.1-2.9,2.3,1.2,2.7,2.7,2.7h0ZM254.8,125.6c0,1.5,1.2,2.6,2.6,2.6s2.5-1.1,2.5-2.7-1.1-2.5-2.5-2.5-2.7,1.1-2.7,2.6h0ZM265.1,140.4c1.5,0,2.6-1,2.6-2.5s-1-2.6-2.5-2.7c-1.5,0-2.6,1-2.7,2.5,0,1.5,1,2.6,2.5,2.7h0ZM352.5,121.1c0-1.4-1.2-2.6-2.7-2.5-1.4,0-2.5,1.2-2.5,2.7,0,1.4,1.2,2.5,2.6,2.5s2.6-1.2,2.5-2.7ZM288.1,132c-1.5,0-2.5,1.2-2.5,2.7s1.1,2.5,2.5,2.5c1.5,0,2.6-1.1,2.6-2.6s-1.2-2.6-2.6-2.6h0ZM259.9,132.3c0-1.5-1-2.7-2.5-2.7s-2.6,1.2-2.6,2.6,1.1,2.5,2.5,2.6c1.5,0,2.7-1,2.7-2.5h0ZM296.8,114.3c-1.5,0-2.5.9-2.6,2.4,0,1.6,1,2.7,2.5,2.7s2.9-1.2,3-2.4c0-1.2-1.4-2.7-2.9-2.7ZM280.4,137.7c1.6,0,2.7-1,2.7-2.5s-.8-2.5-2.4-2.5c-1.6,0-2.7.9-2.7,2.4,0,1.6,1,2.6,2.5,2.7h0ZM257.4,116.4c-1.6,0-2.7,1-2.7,2.5s1.1,2.6,2.6,2.6,2.6-1,2.5-2.6c0-1.5-1-2.5-2.5-2.5ZM249.4,115.9c0-1.3-.9-2.3-2.2-2.3-1.3,0-2.2.8-2.3,2.1,0,1.4.8,2.5,2.2,2.5,1.3,0,2.2-.9,2.3-2.3h0ZM253.7,111.7c0-1.2-1-2.1-2.2-2.1s-2.4,1-2.3,2.2c0,1.2,1,2,2.3,2s2.3-.9,2.3-2h0ZM280.4,106.2c0-1.2-.9-2.1-2.2-2.2-1.4,0-2.4.9-2.4,2.1s1,2,2.3,2.1c1.3,0,2.3-.9,2.3-2ZM285.2,107.9c1.2,0,2.3-1,2.3-2s-1-2.1-2.3-2.1-2.5,1-2.4,2.2c0,1.1,1.1,2,2.3,2h0ZM301.5,102.6c-1.2,0-2.3,1-2.3,2.1s1.1,2,2.3,2,2.3-1,2.3-2-1.1-2.2-2.4-2.1ZM258.2,110.6c-1.2,0-2.3,1-2.3,2s1.1,2.2,2.4,2.1c1.2,0,2.3-1,2.3-2.1s-1.1-2-2.3-2h0ZM292,102.6c-1.3,0-2.3,1-2.3,2.1s1,2.1,2.4,2.1,2.2-1,2.2-2.2-1.1-2-2.3-2h0ZM271.1,105.3c-1.3,0-2.3.8-2.4,1.9,0,1.2,1,2.2,2.3,2.2s2.3-.9,2.3-2c0-1.2-1-2-2.3-2h0ZM264.5,111.8c1.2,0,2.3-1,2.3-2.1s-1-2-2.3-2-2.3.8-2.3,2,1,2.1,2.4,2.1h0ZM315.7,104c-1.2,0-2.4,1-2.3,2,0,1,1.2,2,2.3,2s2.3-.8,2.3-2-1-2.1-2.3-2ZM344.9,115.8c0,1.2,1,2.2,2.4,2.2s2-1,2-2.1-1-2.1-2.2-2.1-2.3.8-2.3,2ZM322.7,105.3c-1.4,0-2.4.8-2.4,2s.8,1.9,2.1,2c1.4,0,2.5-.8,2.5-2s-1-2-2.3-2ZM308.5,103.6c-1.4,0-2.3.8-2.3,2s.9,2,2.1,2,2.4-.8,2.5-1.9c0-1.1-1-2-2.3-2h0ZM337.7,112.5c0-1.3-.8-2-2.3-2s-2.3.9-2.2,2.1c0,1.2.9,1.9,2.2,1.9s2.3-.8,2.3-2h0ZM342.7,113.5c1.4,0,2.3-.7,2.3-2s-.8-2-2-2c-1.4,0-2.3.7-2.4,1.9s.8,2,2.2,2.1ZM331.5,109.7c0-1.3-.8-2-2.3-2s-2.3.9-2.2,2.1c0,1.2.9,1.9,2.2,1.9s2.3-.8,2.3-2h0Z"/>
  </g>
  <g>
    <path class="cls-106" d="M229.3,191.3c-.4,0-.8,0-1.2,0-1.8-.5-3.7-.9-5.5-1.4-2.3-.7-4.4-.5-6.6.6-2.8,1.4-5.1,3.4-7.2,5.7-.1.1-.2.4-.3.8,3.6.5,7,1,10.8,1.4,3.3-2.5,6.7-4.8,10.2-7.1h0Z"/>
    <path class="cls-104" d="M243.4,183.6c-.5,0-1,0-1.4-.3-2.2-.9-4.3-1.8-6.6-2.5-1.2-.3-2.8-.3-4,0-3.2.9-6.1,2.5-8.6,4.8-.3.3-.5.5-.8,1,3.6.9,7,1.8,10.5,2.7,3.6-2,7.2-4,10.9-5.7h0Z"/>
    <path class="cls-110" d="M258.4,177.9c-.4,0-.8-.2-1.2-.5-1.4-.8-2.9-1.5-4.2-2.3-2.8-1.8-5.7-2-8.7-.8-2.2.8-4.2,1.9-6.4,2.9-.4.2-.8.5-1.3,1,3.6,1.4,6.8,2.7,10.2,4,3.8-1.6,7.7-3,11.5-4.3h0Z"/>
    <path class="cls-111" d="M274,174c-.3,0-.6-.3-.9-.5-1.9-1.4-4-2.8-5.9-4.2-1.5-1-3.1-1.2-4.9-1-2.6.3-5.2,1-7.6,2-.7.3-1.4.7-2.3,1.2,3.3,1.8,6.4,3.5,9.6,5.3,4-1.1,7.9-2,12-2.8h0Z"/>
    <path class="cls-109" d="M179.6,248.2c0,0,0,.2-.1.3h0s0,0,0,0c1.7-3.8,3.6-7.6,5.6-11.2,0,0,0,0,0,0-.2.2-.5.3-.7.4-2.2.6-4.4,1.2-6.6,1.7-2.1.5-3.6,1.7-4.8,3.5-1.8,2.7-2.8,5.6-3.8,8.6,0,.2,0,.5.1.8,3.4-1.3,6.8-2.6,10.3-4Z"/>
    <path class="cls-107" d="M173.6,263.4c.1,0,.3-.2.4-.2,0,0,0,0,0,.1,0,0,0,0,.1,0,1.2-4.1,2.7-8.1,4.3-12,0,0,0,0,0,0-.4.5-.9.8-1.6,1.1-2.3.8-4.4,1.8-6.6,2.7-1,.4-1.8,1.2-2.5,2.1-1.7,2.5-2.5,5.2-3.1,8.1-.2,1-.3,2-.5,3.3,3.3-1.8,6.4-3.4,9.4-5.1,0,0,.2-.1.3-.2Z"/>
    <path class="cls-108" d="M167.9,295.4s0,0,0-.1c0,0,.1-.2.2-.3.2-.2.4-.3.6-.3.2-4.2.6-8.3,1.2-12.4,0,0-.1,0-.2-.1-.2.6-.7,1-1.3,1.4-1.8,1.2-3.6,2.7-5.4,4-1.4,1-2.1,2.4-2.5,4-1,3.2-.8,6.5-.5,9.7,0,.3.2.6.3,1.1,2.6-2.3,5-4.6,7.6-6.9Z"/>
    <path class="cls-28" d="M168.8,310.9c0,0,.2-.1.3-.2-.3-3.4-.4-6.8-.4-10.2,0-.7,0-1.4,0-2.1,0,0-.2,0-.3-.1-.2.6-.6,1-1.1,1.5-1.8,1.5-3.5,3.1-5.1,4.8-.7.8-1.4,1.8-1.6,2.8-.6,3.1-.5,6.1.1,9.2.2.8.4,1.6.8,2.7,2.5-3,4.8-5.7,7.2-8.5,0,0,0,0,0,0Z"/>
    <path class="cls-25" d="M170.6,327.2c0-.1,0-.2.1-.3.1-.2.3-.4.5-.5-.8-4.1-1.5-8.2-1.9-12.4,0,0-.1,0-.2,0,0,.7-.3,1.2-.8,1.8-1,1.2-2.1,2.5-3.1,3.7-1.3,1.6-2.6,3.2-2.7,5.6-.1,3.6.8,7,2,10.4,0,.1.3.3.6.5,1.9-2.9,3.7-5.8,5.5-8.5,0,0,0,0,0,0Z"/>
    <path class="cls-26" d="M175.4,342.1c0,0,0-.1.1-.2,0,0,0,0,0,0-1.4-4.1-2.6-8.2-3.6-12.5,0,0,0,0,0,0,0,0-.1,0-.2,0,0,.5,0,1.2-.2,1.7-1.3,2.2-2.7,4.3-4,6.4-.7,1.1-.9,2.2-.9,3.4,0,2.5.8,4.7,1.6,7,.5,1.4,1.2,2.8,2.3,4.2,1.6-3.4,3.2-6.6,4.8-10,0,0,0,0,0,0Z"/>
    <path class="cls-27" d="M189.7,371.1s0,0,0,0c-2.4-3.7-4.7-7.5-6.7-11.5,0,0,0,0,0,0,.3.8.2,1.6-.1,2.5-.8,2.2-1.4,4.4-2,6.8-.2.8-.3,1.7,0,2.5,1,4.1,3.3,7.4,6.3,10.2h.4c.7-3.4,1.4-6.9,2.1-10.6,0,0,0,.1.1.2Z"/>
    <path class="cls-36" d="M181.4,357.2s0,0,0-.1c0-.1,0-.2.1-.3,0,0,0,0,0,.1,0,0,0,0,0,0-1.9-3.9-3.6-7.9-5.1-12,0,0-.1,0-.2,0,.2.8,0,1.5-.3,2.3-1,2-2,4.1-2.9,6.2-.5,1-.5,2.1-.4,3.3.3,2.5,1.2,4.6,2.5,6.8.8,1.3,1.4,2.7,2.8,3.9,1.1-3.2,2.1-6.2,3.2-9.5,0-.2,0-.5.2-.7Z"/>
    <path class="cls-32" d="M170.3,278.8s0,0,0,.1c0,0,0,0,.1,0h0c.7-4.2,1.6-8.4,2.8-12.5,0,0,0,0-.1,0,0,0,0,.1,0,.2-.1.3-.5.7-1,.9-1.9,1.1-3.9,2.3-5.9,3.3-2.2,1.1-3.2,2.9-4,5.1-1,2.7-1,5.6-1.2,8.5,0,.3.3.5.4.9,3-2.1,5.8-4.2,8.9-6.4Z"/>
    <path class="cls-30" d="M187,234.1s0,0,0,0c2.4-4,5-7.8,7.8-11.5-.1.1-.3.3-.4.5-.4.4-1,.8-1.6.9-1.8.3-3.8.4-5.6.8-1.7.3-3.5.3-4.9,1.7-2.7,2.6-4.5,5.7-5.9,9.2,0,.2,0,.5,0,1,3.6-.9,7.1-1.8,10.7-2.6,0,0,0,0,0,.1Z"/>
    <path class="cls-29" d="M195.5,221.9c2.9-3.8,6-7.4,9.4-10.8-.7.4-1.4.6-2.3.5-2.1,0-4.2,0-6.4,0-1.6,0-3.1.6-4.2,1.6-2.6,2.1-4.6,4.7-6.3,7.7-.1.3-.1.7-.2,1.1,3.7-.4,7.2-.8,10.9-1.2-.3.3-.5.7-.8,1h0Z"/>
    <path class="cls-35" d="M289.9,172.1c-.3-.1-.5-.3-.8-.6-1.8-1.7-3.6-3.3-5.5-5-.5-.5-1.4-.9-2.1-1-3.5-.8-7-.3-10.3.7-.7.2-1.4.4-2.3.8,3.1,2.3,5.9,4.3,8.8,6.5,4-.6,8.1-1,12.2-1.3h0Z"/>
    <path class="cls-31" d="M337.9,178.4c-.3-.3-.5-.6-.8-1.1-1-2-2-4-2.9-6-.7-1.5-1.8-2.5-3.2-3.1-2.9-1.4-5.9-2-9.1-2.3-.5,0-1.1,0-1.8,0,2,3.1,3.8,6.1,5.7,9.1,4.1,1,8.1,2,12.1,3.3h0Z"/>
    <path class="cls-38" d="M353,184.5h0c-.3-.1-.4-.5-.5-.9-.6-1.8-1.2-3.7-1.8-5.5-.7-2.1-1.8-3.8-3.8-5.1-2.2-1.2-4.4-2-6.8-2.7-1-.3-1.9-.8-3-.2,1.4,3.1,2.9,6.1,4.4,9.5,4,1.4,7.9,3.1,11.7,4.9h0Z"/>
    <path class="cls-34" d="M355.7,185.9c4,2,7.9,4.3,11.7,6.8-.6-.5-.9-1.2-1-2.1-.3-2-.9-3.9-1.2-5.9-.2-1.4-.8-2.5-1.8-3.4-2.3-2.3-4.9-3.7-7.9-4.7-.8-.3-1.6-1-2.7-.5,1,3.3,2,6.4,3.1,9.6,0,0-.1.2-.3.3h0Z"/>
    <path class="cls-37" d="M191.4,373.5c.3.6.4,1.3.2,2-.4,1.5-.6,3-1,4.6-.7,2.9-.5,5.6,1.3,8,1.4,1.8,2.9,3.4,4.4,5.1.5.6,1.1,1.4,2.1,1.4.3-3.6.5-7,.8-10.7-2.8-3.3-5.5-6.8-7.9-10.3h0Z"/>
    <path class="cls-33" d="M297.3,171.9c2.9,0,5.9.1,8.8.3-.2-.1-.4-.3-.6-.5-1.5-1.8-3-3.6-4.6-5.4-1-1.1-2.2-1.8-3.6-2.1-2.8-.6-5.6-.4-8.4-.3-.9,0-1.8.3-3,.6,2.7,2.6,5.2,4.9,7.8,7.4h3.6Z"/>
    <path class="cls-40" d="M322.3,174.3c-.3-.2-.5-.5-.8-.9-1.2-1.8-2.4-3.6-3.6-5.5-.8-1.2-1.9-2-3.3-2.6-3.3-1.4-6.8-1.5-10.3-1.4-.3,0-.7.2-1.2.4,2.3,2.8,4.5,5.4,6.8,8.2,4.2.4,8.3,1,12.4,1.8h0Z"/>
    <path class="cls-24" d="M206.3,209.6c3.2-3.2,6.6-6.3,10.1-9.1-.3.1-.8.3-1.1.2-1.7-.1-3.4-.4-5.1-.6-2.5-.3-5-.4-7.2,1.2-2.7,1.8-4.8,4.2-6.8,6.8-.1.2,0,.5-.1.9h10.8c-.2.3-.4.5-.5.7Z"/>
    <path class="cls-41" d="M334.6,423.6c.6,0,1.2.4,1.9.8,1.9,1.2,3.9,2.2,5.9,3.1.6.3,1.3.4,2,.4,4,0,7.6-1.6,10.9-3.6.3-.2.5-.5,1-.8-3.3-1.4-6.6-2.7-9.9-4.1-3.8,1.6-7.7,3-11.7,4.2h0Z"/>
    <path class="cls-39" d="M349.8,417.9c.5,0,1,.1,1.4.3,1.5.7,3.1,1.3,4.6,1.9,2.5,1,5,1.2,7.5.1,2.6-1.1,5.1-2.5,7.2-4.3.3-.2.4-.5.7-.9-3.5-1-6.8-1.9-10.3-2.9-3.6,2-7.3,3.9-11.1,5.6h0Z"/>
    <path class="cls-23" d="M318.9,427.3c.6.1,1.2.4,1.8,1,1.2,1.2,2.6,2,4,2.9,1.1.7,2,1.5,3.5,1.7,2.7.3,5.1-.3,7.6-1,1.6-.5,3.1-1,4.6-2-3.1-1.8-6.1-3.5-9.2-5.3-4,1.1-8.1,2-12.2,2.7h0Z"/>
    <path class="cls-14" d="M201.6,386.4c.2.5.3,1,.3,1.6-.2,2.3-.3,4.7-.4,7,0,1.4.3,2.6,1.1,3.7,1.9,3,4.6,5.2,7.6,7.2.3.1.6.1,1,.3-.1-3.6-.3-7-.5-10.7-3.1-2.9-6.1-5.9-8.9-9.1h0Z"/>
    <path class="cls-16" d="M303.1,429c1.5,1.4,3,2.9,4.6,4.2,1.1.9,1.9,2.2,3.5,2.5,1.2.2,2.4.4,3.6.5,2.7,0,5.2-.5,7.8-1.2.4-.1.8-.4,1.4-.6-2.9-2.2-5.7-4.2-8.5-6.4-4,.5-8.1,1-12.3,1.2h0Z"/>
    <path class="cls-17" d="M398.8,381s0,0,0,0c-.2.1-.5.2-.7.2h-.3c-2.6,3.1-5.4,6.2-8.4,9.1,0,0,0,0,0,0,.4-.2.9-.2,1.4-.2,2.3,0,4.5,0,6.7,0s2-.3,2.9-.8c3.4-2.1,5.7-5.3,7.6-8.7,0-.1,0-.3,0-.6-3.1.3-6.1.6-9.3.9Z"/>
    <path class="cls-15" d="M415.5,353.6c-.2.2-.4.3-.6.3h0c-1.6,3.7-3.5,7.2-5.4,10.6,0,0,0,0,0,0,0,0,0,0,0,0,0,0,.2,0,.2,0,1.6-.4,3.3-.8,5-1.1,2.6-.5,4.9-1.7,6.2-4.1,1.1-1.9,2-4,2.9-6,.4-.9.5-1.8.9-3.1-3.2,1.2-6.1,2.2-9.2,3.3Z"/>
    <path class="cls-13" d="M386.8,392.8s0,0,0,0c-3.2,3-6.6,5.9-10.1,8.7,0,0,.2-.1.3-.2.3-.2.8-.3,1.1-.2,1.8.2,3.8.4,5.6.8,2.8.6,5.1-.1,7.4-1.8,2.3-1.6,4.1-3.6,5.8-5.8.2-.3.2-.7.3-1.3h-10.6c0,0,.2-.2.2-.2Z"/>
    <path class="cls-20" d="M417.5,349.9c2-.7,4-1.5,6.1-2.3,1-.4,1.8-1.1,2.5-2,1.6-2.2,2.5-4.6,3.1-7.2.3-1.3.5-2.7.8-4.4-3.4,1.7-6.4,3.3-9.5,4.9-1.2,4-2.5,7.8-4.1,11.5.3-.2.7-.4,1.1-.5Z"/>
    <path class="cls-22" d="M407.8,367.8s0,0-.1,0c-.1,0-.2,0-.3.1,0,0,0,0-.1,0-2.2,3.4-4.5,6.7-7,9.9.2,0,.4,0,.6,0,1.6-.1,3.3-.2,4.9-.5,1.6-.3,3.2-.2,4.6-1.2,3.4-2.7,5.4-6.3,7.1-10.6-3.3.7-6.4,1.4-9.6,2.2Z"/>
    <path class="cls-18" d="M391.6,211c.1-2.3.1-4.6.1-6.9s-.2-2-.8-2.9c-2.1-3.1-4.8-5.5-8-7.4-.2-.1-.5,0-.8-.1.2,3.4.4,6.7.5,10.1,0,0,0,0,0,.1,0,.1,0,.2,0,.4,0,0,0,0,0,0,3.2,2.9,6.3,5.9,9.2,9.1,0,0,0,0,.1,0-.4-.7-.5-1.4-.4-2.3Z"/>
    <path class="cls-21" d="M379.6,201c-.2-2.3-.4-4.4-.5-6.7,0-1.8-.8-3.3-2-4.6-2.3-2.5-5.2-4.3-8.3-5.7-.3-.1-.6-.1-1-.1.7,3.5,1.3,6.9,2,10.6-.1,0-.3-.2-.4-.3,0,0,0,0,0,0,3.6,2.4,7,5.1,10.3,7.8,0,0,0,0,.1,0-.2-.3-.3-.6-.4-.9Z"/>
    <path class="cls-12" d="M434.1,300.4c-2.8,2.4-5.3,4.7-7.9,6.9h0c-.2,0-.4.1-.6.2-.2,4.5-.6,8.8-1.2,13,0,0,0,0,0,0,.3-.8.8-1.6,1.8-2.1,1.6-.9,2.9-2.2,4.5-3.1,1.6-1,2.5-2.5,2.9-4.3.3-1.6.7-3.3.8-5.1,0-1.7-.2-3.5-.3-5.6Z"/>
    <path class="cls-19" d="M429.4,263.7c0-.2-.3-.3-.5-.5-1.3,2.1-2.7,4.1-4,6.2,0,.1,0,.2-.1.3-.1.2-.3.4-.4.6-.4.6-.8,1.2-1.2,1.8,0,0,0-.1,0-.2-.1.2-.3.3-.4.5.9,4,1.6,8.1,2.1,12.2,0,0,0,0,0,0,0,0,0,0,0-.1.1-.3.3-.5.6-.7,0,0,.2-.1.3-.1.2-.3.3-.5.6-.8,1.3-1.4,2.4-3.1,3.7-4.5,1.2-1.4,1.6-3,1.6-4.8,0-3.4-1-6.7-2.3-9.8Z"/>
    <path class="cls-50" d="M423.5,247.3s-.2,0-.4,0c-1.5,3.1-2.9,6.3-4.5,9.6,0,0,0,0,0-.1,0,.1-.2.3-.3.4,1.4,3.9,2.6,7.8,3.6,11.9.2-.2.3-.4.5-.6,0-.1.2-.2.3-.3.1-.3.3-.6.5-1,1.2-1.7,2.2-3.6,3.3-5.4.5-.8.8-1.6.8-2.6,0-4.3-1.5-8.1-3.7-11.6Z"/>
    <path class="cls-51" d="M420.7,241.2c-.9-3.1-2.3-6-4.4-8.5-.2-.3-.5-.5-.9-.8-1.1,3.1-2.1,6.2-3.1,9.4,0,.1,0,.2-.1.3,0,.2-.1.3-.2.5,0,0,0,0,0-.1,0,0,0,0,0,0,0,0,0,0-.1.1,1.8,3.6,3.5,7.3,5,11.1.2-.2.4-.5.7-.7,0,0,0,0,0,0,0-.1.1-.3.2-.4,1-2,1.7-4,2.7-5.9.8-1.6.8-3.3.3-4.8Z"/>
    <path class="cls-48" d="M402.9,214.8c-.9-2.9-2.8-5.2-4.9-7.4-.9-.9-1.9-1.6-3.2-2.7-.3,3.9-.5,7.3-.7,10.8,0,0,0,0,0,0,0,0,0,.1,0,.2,2.6,3,5.1,6.2,7.5,9.4,0,0,.2,0,.2,0,0,0,0,0,0,0,0-.2,0-.4,0-.5.4-2.5.9-5.1,1.3-7.6.1-.7.1-1.5,0-2.2Z"/>
    <path class="cls-49" d="M412.8,228.4c-.9-4.3-3.6-7.6-6.8-10.9-.7,3.6-1.4,6.9-2.1,10.5,0,0,0,.1,0,.2,0,0,0,0,0,0,0,0,0,0,0,0,0,0,0,0,0,0,0,0,0,.1,0,.2,2.3,3.3,4.4,6.8,6.3,10.3,0,0,0,0,.1,0,0,0,0,0,.1,0,.7-2.2,1.4-4.3,2-6.6.3-1.2.7-2.5.5-3.7Z"/>
    <path class="cls-44" d="M433.2,281.1c0-.3-.3-.7-.5-1.2-2.3,2.8-4.6,5.5-7,8.4,0,0,0,0,0,0-.1.1-.2.3-.3.4.4,3.9.5,7.8.5,11.8.2,0,.5,0,.7,0,.1-.3.3-.5.6-.8,1.6-1.5,3.1-3.1,4.7-4.5,1.3-1.2,1.9-2.5,2-4.2.3-3.3.1-6.6-.7-9.7Z"/>
    <path class="cls-42" d="M432.8,317.3c-2.9,2-5.7,4-8.7,5.9v-.2s0,0-.1,0c-.7,4.2-1.5,8.3-2.6,12.3,0,0,0,0,0,0,.2-.3.5-.5.9-.7,1.9-1,3.8-2.1,5.7-3.1,1.7-.8,2.7-2.3,3.3-4,.9-2.3,1.4-4.7,1.6-7.2.1-1,.2-2.1-.2-3.2Z"/>
    <path class="cls-43" d="M363.9,410.5c.3,0,.5,0,.8,0,2.3.5,4.5,1.2,6.8,1.8,1.4.3,2.8.3,4.2-.1,3.4-1.2,6.1-3.5,8.7-6,.2-.2.3-.5.5-1-3.7-.5-7.1-1-10.7-1.6-3.3,2.5-6.8,4.8-10.4,7h0Z"/>
    <path class="cls-47" d="M226.2,407.6c.2.3.3.6.3,1,.3,2.1.8,4.2,1.2,6.2.3,1.9,1.2,3.4,2.7,4.6,2.3,1.8,4.7,3.2,7.4,4.2.7.2,1.4.4,2.3.7-1.1-3.5-2-6.8-3.1-10.3-3.7-2-7.3-4.1-10.8-6.4h0Z"/>
    <path class="cls-45" d="M297.3,429.1c-3.5,0-6.9-.1-10.3-.4.1,0,.2.2.3.3,1.5,1.8,3,3.6,4.5,5.5.9,1.1,2,1.8,3.4,2.2,3,1,6,.7,9,.5.8,0,1.6-.3,2.2-.5-2.3-2.5-4.6-5-6.8-7.5h-2.3,0Z"/>
    <path class="cls-46" d="M240.3,415.8c.2.3.4.7.5,1.1.6,2.2,1.4,4.4,2.1,6.6.4,1.4,1.2,2.4,2.3,3.1,1.4.9,2.9,1.7,4.4,2.4,2,.8,4,1.4,6.6,1.6-1.6-3.3-3-6.6-4.4-9.8-3.9-1.5-7.7-3.1-11.4-5Z"/>
    <path class="cls-60" d="M213.3,397.9c.1.3.3.6.3.9.2,2.5.3,5.1.5,7.5,0,1.2.5,2.1,1.1,3,1.8,2.4,4.1,4.2,6.7,5.5,1,.5,1.8,1.2,3.1,1.3-.6-3.5-1.2-6.9-1.8-10.5-3.4-2.4-6.8-5-9.9-7.7Z"/>
    <path class="cls-58" d="M270.8,426.4c.4.3.8.8,1.1,1.4,1,1.7,2.2,3.3,3.2,5.1.8,1.4,2,2.3,3.6,2.7,1.8.5,3.8,1,5.7,1.2,1.6.2,3.4.2,5.4-.1-2.3-2.9-4.5-5.6-6.6-8.3-4.2-.5-8.3-1.1-12.4-2h0Z"/>
    <path class="cls-59" d="M255.2,422.1c.3.3.5.7.7,1.1,1,2.2,2.1,4.3,3.1,6.5.5,1,1.2,1.6,2.1,2.2,3.3,2,7,2.5,10.7,2.9.2,0,.5-.1.8-.3-1.9-3.1-3.7-5.9-5.5-8.9-4-1-8.1-2.1-12-3.5h0Z"/>
  </g>
  <path class="cls-103" d="M426.4,296.2c-2.3-70.9-62.6-126.6-133.4-124.3-70.8,2.3-127.3,61.9-125,132.7,2.3,70.9,62.6,126.6,133.4,124.3,70.8-2.3,127.3-61.9,125-132.7ZM300.5,399.8c-54.7,1.8-101.3-41.3-103.1-96-1.8-54.8,41.9-100.8,96.6-102.6,54.7-1.8,101.3,41.3,103.1,96,1.8,54.8-41.9,100.8-96.6,102.6Z"/>
  <g>
    <path class="cls-57" d="M378.8,272.9c-.3-1-.7-1.7-1.3-2.2-2.4-1.9-4.7-4.2-7-6.7-4.8-5.6-10.2-10.8-15.9-15.5-2.9-2.6-7.1-5.7-12.5-9.2-6.8-4.4-13.6-7.7-20.4-9.8-17-5.3-34.6-3.7-50.9,3.6-6.5,3.1-12.5,6.9-18.1,11.4-8.3,6.8-16.5,14.2-24.5,22.1-1.1,1-2.2,2.1-3.5,3.1-1.8,1.5-3,2.6-3.5,3.1-2.2,2.5-4,4.2-5.5,5.1h0c-.2.1-.2.5,0,.6h0c.2.3.5.3.8.2,7.2-3.5,13-7.4,20.4-12.4,7.2-4.8,21.2-15.4,33.5-21.8,15.5-8.1,31.7-9.6,48.5-4.5,8.6,2.5,16.7,6.1,24,10.5,3.3,2,6.9,4.5,10.8,7.4,5.9,4,12,8.3,17,13.5.4.4.5,1.1.1,1.6l-8.3,11.9c-12.8,15.3-28.8,25.3-48.4,29.2-19.7,3.9-25.2.8-29.8.1,3.8,1.3,15.5,4.1,32.1,1.8,17.8-2.4,34.7-10.8,47.4-23.3,5.1-4.8,9.5-10.1,13.4-15.9.4-.6.9-1.8,1.4-3.4,0-.2,0-.4,0-.6l.3-.2Z"/>
    <g>
      <path class="cls-61" d="M325.3,283.3c-.3-1.3-.8-2.1-1.4-2.4-3.1-1.4-6.7-2.3-10.9-3-.8-.1-1.7,0-2.7,0h-.2c0,0-.1-.2,0-.3,1.3-1.7,3.7-1.2,5.9-1.1.3,0,.5,0,.8-.2,2.1-1.4,4.4-.9,7-.5.1,0,.3,0,.3-.1.1-.1,0-.4,0-.5-2.4-1.8-5.1-2.9-8.1-3.2,0,0-.2,0-.3-.1-.1-.1,0-.4,0-.5l3.1-2.2c.1,0,.2-.2.2-.3.1-.3,0-.8-.3-.8-2.3-.9-4.6-1-7-.3-3.1.9-5.5,2.6-7.2,5.1-.3-.5-.3-1.3-.3-2,0-.2.2-.4.4-.4,2-.2,4.6-1.2,3.6-3.8v-.2c0-.1.3-.2.4-.1l1.5.8c.3.1.6.1,1,0l3.3-1.9h0c.2-.1.3-.5.1-.7-2.1-3.1-4.7-3.6-7.9-1.2h-.2c-.1,0-.3-.1-.3-.3.3-3.3-2.2-3.8-4.8-3.7-1.6,0-2.6,1.2-2.9,3.2,0,0,0,.1-.1.2-.1,0-.3,0-.4-.1-1.6-3-4.8-3.1-8.2-2.9-1,0-2,.5-2.9,1.4,0,0,0,0-.1.1-.3.5-.2,1.2.3,1.6,2.9,1.9,5,4.6,6.2,8.3h0c0,.1-.1.1-.2.1-3.3-4.8-7.2-8.7-13.8-8h0c-.2,0-.3.2-.3.5h0c0,.3,0,.5.2.6,2.8,3.1,4.8,5,8,5.7.2,0,.4.2.5.3.5.7.8,1.6.6,2.6-3.8-2.7-9-5.2-13.7-3.9,0,0-.2,0-.3.1-.3.3-.3.7,0,1,.8,1,2,1.6,3.7,1.9.3,0,.7.3.8.6.4.9,1.2,1.5,2.3,1.8,1.5.4,3.3,1,5.7,1.6h0l2.6,1.5c0,0,.1.1,0,.2,0,.1-.1.2-.3.1-6.1-1.8-12.2-1.5-18.2,1.1-.4.1-.6.6-.5,1l.5,2h0c.1.4.4.5.7.4l2.7-1.2c.3-.1.5,0,.8,0,1.3.9,2.4.7,3.3-.5,0-.1.2-.2.3-.2h.1c.1,0,.3,0,.4.2.1.2,0,.5-.1.7-2.5,1.8-5,3.3-5.7,6.5-.3,1.2,0,2.3.7,3.3.1.2.3.3.5.3.5.1,1.1-.1,1.2-.7l.4-1.5c0-.3.3-.6.6-.8,1.8-1,3.6-2.3,5.3-4.2,0,0,.2,0,.3,0l.3.2h0c0,0,0,.2,0,.3-2.4,2.2-5,5-5,8.2s0,.3,0,.3c.2.4.6.6,1,.4.1,0,.3-.2.4-.4,1-1.6,2.2-2.8,3.8-3.6h.1c0,0,.1.1,0,.2-1.1,2.1-1.4,4.4-1.1,6.6h0c0,.3.5.5.8.5,2.3-.5,2.4-4.4,5.1-5-1,2.6-1.2,5.1-.5,7.4,0,.3.3.5.5.5.4,0,.8-.1,1-.6l.8-3.8c0-.1.1-.3.2-.5l1-1.4c.2-.3.3-.7.4-1,.1-1.1.6-2.1,1.4-3.1,0,0,0,0,.1,0s.2,0,.2.2c0,0-.3,1.2-.8,3.3-.8,3.1-.5,5.9.8,8.5,0,0,0,.1.1.1.3.3.7.3,1,0l2-1.8s.1-.1.2-.1c.3,0,.6,0,.7.4.5,1.8.9,3.6,1.2,5.3.3,1.6-1.8,2-1.2,4.2.3,1.2.2,2.2-.5,2.9-.3.3-.4.6-.4,1v1h0c0,.2-.2.4-.4.4h-.8c.1.3.3.6.3,1h1c.5.1.8.6.6,1.1l-.8,2.6c0,.2,0,.3,0,.5l.5,11.7h0c0,.2-.2.4-.4.4h-9.5c0-.1-.1-.1-.2-.1-.5,0-1,.6-.9,1.2.3,2,1,3.7,2.3,5.1,0,0,0,.1.1.1.5.4,1.2.3,1.5-.1,1.6-2,2.7-.9,4.2,0,.3.1.5,0,.7-.2l.4-.8h0c.1-.2.4-.3.6,0l3.1,2.3c.3.3.9.2,1.1-.2l1.8-2.6s0,0,0,0c.3-.3.7-.2,1,0l2.3,2.4h0c.3.3.7.3,1,0l1.7-1.8c.1-.1.3-.2.5-.2h1.8c.3,0,.5,0,.8-.2,1.4-1,2.4-2.3,2.9-3.6,0,0,0-.2,0-.3,0-.5-.3-.8-.8-.8h-9.9c-.2-.1-.4-.3-.4-.5-.4-2.7-.3-5.5.3-8.5,0-.3,0-.8-.2-1l-.8-1.1c-.1-.2-.1-.5,0-.8,1-1.2,1-2.4-.1-3.4,0,0-.1-.2-.1-.3,0-.2.2-.4.4-.4h0c0-.7,0-1.4.3-2-.4-1.4-.5-2.5-.5-3.2,0-1.7-1.2-2.8-1-4.6.1-.9,0-1.7-.1-2.4-.3-.8-.1-2.2.3-4.2h0c0-.2.2-.2.3,0l2.5,1.8h0c.1,0,.3,0,.4-.2.8-2.6,0-6.2-.5-8.9,1.4.6,2.4,1.6,3.1,2.9,1.1,2.2,1.6,2.9,3.4,3.7h.1c.3,0,.5-.1.6-.4.3-2-.1-3.9-1.2-5.7-1.7-2.7-3-4.7-3.8-6.1v-.3c0,0,.2,0,.3,0l3.2,3.5s0,0,.1,0l1.2.3c.3,0,.5.3.7.5l1.4,2c.6.9,1.8,1.3,2.9,1h.1c.1,0,.3-.1.3-.2.5-.4.7-1.2.3-1.8-2.3-3.2-4.8-5.9-7.6-8.3,0,0-.1-.2,0-.3,0-.1.2-.2.3-.2,1.6.5,3,1.4,4.1,2.7.2.3.6.4,1,.4,2.7-.3,5.3.4,7.9,2.2,0,0,.2,0,.3,0,.3,0,.5-.3.4-.5-.1-1-.8-2.1-1.6-2.9-2-1.7-3.1-2.7-3.4-2.9-.3-.3-.4-.5-.4-.7v-.3c.1-.3.5-.5.8-.3.6.3,1.6.8,2.8,1.4.7.4,1.8.6,3.3.6h0c.2,0,.3-.2.3-.4l.8.3ZM288.4,285.3c-.4.1-.7.1-.8,0h0c-.3-.3-.4-.8-.1-1.1,1-1.2,1.9-1.6,2.9-1.5.5,1.3-1,2-1.9,2.6ZM293,282.8h0c-.2,0-.4-.3-.3-.8,0-.3.3-.7.5-.6h0c.2,0,.4.3.3.8,0,.3-.3.7-.5.6ZM296.4,271.2h0c-.3.1-1.2-.9-1.8-2.3h0c-.8-1.4-1.1-2.7-.8-2.9s1.2.9,1.8,2.3c.8,1.4,1.1,2.7.8,2.9ZM297.9,290.1c-.1,1.4-.5,2.5-.9,2.5s-.6-1.2-.5-2.5.5-2.5.9-2.5.6,1.2.5,2.5ZM300.9,270.3h0c-.4,1.1-1,1.9-1.3,1.8-.3-.1-.2-1.1.1-2.2h0c.4-1.1,1-1.9,1.3-1.8h0c.3.1.2,1.1-.1,2.2Z"/>
      <path class="cls-55" d="M293.2,275.3h0q0,0,0,0Z"/>
      <path class="cls-56" d="M293.2,275.1h0q0,0,0,0Z"/>
      <path class="cls-53" d="M293.2,275.4h0q0,0,0,0Z"/>
      <path class="cls-54" d="M293,274.9h0c0,0,0,0,0,0Z"/>
      <path class="cls-52" d="M290,274.1h.2-.2Z"/>
      <path class="cls-62" d="M289.7,274.2h0Z"/>
      <path class="cls-63" d="M289.8,274.2h0Z"/>
      <path class="cls-64" d="M289.9,274.1h0Z"/>
      <path class="cls-75" d="M293,275.8h0Z"/>
      <path class="cls-77" d="M292.9,275.9h0Z"/>
      <path class="cls-65" d="M292.7,275.9h0,0Z"/>
      <path class="cls-74" d="M292.6,275.9h0Z"/>
      <path class="cls-72" d="M352.4,331.1c0,0,.1,0,.1-.1s0-.2-.1-.2c-2.2-.6-4.9-1.1-8.1-1.4-9.4-1-18,2.9-25.9,7.9-6.6,4.2-12.8,8.9-18.6,14.1-.6-.3-1-.5-1.4-.9-7.2-6.2-14.5-11.4-21.9-15.6-7.4-4.2-16-7-24.7-5.2-2.7.5-4.6,1-5.9,1.3h0c0,.3,0,.3.2.3,4.3-.3,7.4.8,12.2,1.9,13.5,3.4,26.4,13,36.7,22.1l-8.3,7.7h0c-.1.1-.3,0-.5,0-.2-.3-.4-.7-.4-1.1v-.6c-.1-.7-.5-1.2-1.2-1.4h-.5c-.5.1-.8.7-.7,1.2.1.5.1,1.2,0,2v.3c.1.4.5.5,1,.6h-.1c0,0,0,.2,0,.3,0,0,.1.1.1.2s0,.1,0,.2c-2.4,2-5.6,3.4-8.6,2.1-.1,0-.3-.1-.4-.2-2-1.4-4.4-3.1-6.4-1.8-.2.1-.4.3-.5.6-1,3.1-.1,5.5,2.5,7.2,5.5,3.7,12.9,0,18.2-3.3.1,0,.3-.1.4-.1.4,0,.8.3.8.8v.9c0,.1,0,.3.1.5.3.4.7.5,1,.5,1.5.2,2.3-.3,2.1-1.7-.1-1.5-.6-2.3-1.4-2.3h-.7c0,0-.1-.1-.2-.2-.1-.1-.1-.3,0-.5l8.5-7.9,8.2,7.7c.1.1.2.3,0,.5-.8,1.2-1,2.5-.7,3.8,0,.4.4.7.8.7s1-.3,1-.8l.2-1.4c0,0,0-.2,0-.3.2-.3.5-.3.8-.1,3.1,2.1,6.5,3.7,10.2,4.8,3.8,1.2,7.1.1,9.8-3.1,2.1-2.5,1.5-8.2-3.1-6.4-.1,0-.3.1-.4.3-2,2-4.5,2.8-7.4,2.4-1.6-.5-3-1.4-4.3-2.5-.1,0-.1-.2-.1-.3,0-.2.2-.4.5-.3,2,.2,2.5-3.5.4-4h-.1c-.4,0-.7.3-.7.7v2.5c0,0,0,.2-.1.3-.1.1-.4.1-.5,0-.3-.3-.9-.5-1.5-.5s-.6-.1-.9-.3l-7.6-7.4c12.7-11.2,27-20.7,43.4-23.6,2-.3,3.7-.5,4.8-.5h-.2ZM280.6,369.4c0,.1,0,.2-.2.3-4.1,1-7.4.3-9.9-2-.3-.3-.4-1-.1-1.4h0c.3-.3.9-.4,1.2-.1,2.7,2.3,5.6,3.2,8.5,2.7h0c.2,0,.3.2.3.4v.2h.2ZM326.9,367.1c0-.1.2-.2.3-.3.5-.1,1,0,1.1.5,0,0,0,.3-.1.6-.8,1.8-2.1,2.9-4,3.2-.5,0-1.6,0-3.4,0-1.1-.2-1.7-.6-1.9-1.2,3.3.5,5.9-.5,8-2.8h0ZM295.2,359.7c-.4.5-.6,1.1-.5,1.7,0,.2,0,.4-.1.5-.2.3-.7.4-1,.2-.7-.4-1.2-1-1.6-1.8v-.2c0-.3.2-.5.5-.6h2.6c0-.1,0-.1.1-.1s0,.2,0,.3h0ZM307.3,362.8c0,0,.1.2,0,.3v.2c0,0-.1,0-.1.1-.1.1-.3.1-.5,0l-5.9-5.5-5.8-5.3c-.1-.1-.1-.3,0-.4,0-.2.3-.3.5-.2.9.4,1.7,1.2,2.6,2.2l9.2,8.6h0ZM305.2,351.8h0s0-.1,0-.2c0,0,0,.1,0,.2h0c.1.2.5.3.7.1-.2.1-.5.1-.7-.1ZM313.4,346.4c.2-.1.3-.5.1-.7h0s0,0-.1-.1c0,0,0,0,.1.1h0c.1.2.1.5-.1.8h0ZM319.7,341.1h0ZM321.1,340.9c.2,0,.4-.2.7-.3,0,0,.1,0,.2-.1,0,0-.1,0-.2.1-.2.1-.5.2-.7.3ZM323.3,339.4c0-.1.1-.2,0-.3h0c0,0,0,0,0,0,0,0,0,.1,0,.3Z"/>
    </g>
  </g>
  <g>
    <path class="cls-73" d="M240.7,137.4c2,0,3.3-1.2,3.5-3.1,0-1.9-1.2-3.3-3.1-3.4-2.1,0-3.6,1.2-3.6,3.1,0,2,1.2,3.3,3.3,3.4Z"/>
    <path class="cls-76" d="M350.1,134.2c0,1.8,1.6,3.1,3.6,3.1s2.9-1.8,2.7-3.3c-.1-1.8-1.4-3.1-3.3-3-1.8,0-3.1,1.4-3.1,3.2h0Z"/>
    <path class="cls-80" d="M242.3,130.1c1.6,0,2.7-1.2,2.7-2.9s-1.2-2.8-2.8-2.8-2.9,1.2-2.8,3c0,1.6,1.2,2.7,2.9,2.7h0Z"/>
    <path class="cls-78" d="M355.2,127.3c0-1.4-1.4-2.8-2.9-2.9-1.4,0-2.8,1.4-2.9,2.8s1.4,2.7,2.9,2.8c1.5,0,2.9-1.3,2.9-2.7Z"/>
    <path class="cls-79" d="M244.4,123.8c1.7,0,2.7-1,2.7-2.7s-1.2-2.7-2.7-2.7-2.7,1.2-2.7,2.7,1.1,2.6,2.8,2.6h0Z"/>
    <path class="cls-81" d="M324,135.8c0-1.2-1.6-2.5-3-2.5s-2.9,1.2-2.9,2.6,1.4,2.6,3,2.5c1.4,0,2.9-1.4,2.9-2.6Z"/>
    <path class="cls-71" d="M328.4,135.2c-1.4,0-2.9,1.3-2.9,2.5s1.2,2.6,2.8,2.7c1.4,0,2.7-1.1,2.7-2.5s-1.1-2.7-2.6-2.7h0Z"/>
    <path class="cls-69" d="M305.5,137.2c1.4,0,2.9-1.4,2.9-2.7,0-1.3-1.6-2.5-3.1-2.5s-2.7,1.4-2.7,2.7c0,1.3,1.5,2.5,2.9,2.5Z"/>
    <path class="cls-70" d="M313,137.7c1.4,0,3-1.4,3-2.5s-1.6-2.5-3-2.5c-1.5,0-2.8,1.2-2.9,2.5,0,1.3,1.4,2.6,2.9,2.6h0Z"/>
    <path class="cls-68" d="M336.6,116.1c-1.4,0-3.1,1.4-3,2.7,0,1.2,1.4,2.4,2.8,2.5,1.5,0,2.7-1,2.7-2.5,0-1.5-1-2.7-2.5-2.7h0Z"/>
    <path class="cls-67" d="M296.8,126.8c1.3,0,2.9-1.4,2.9-2.5s-1.6-2.7-3.1-2.7c-1.4,0-2.4,1.2-2.4,2.6s1.2,2.6,2.6,2.6h0Z"/>
    <path class="cls-66" d="M336.3,137.2c-1.4,0-2.7,1.4-2.7,2.6s1.4,2.7,2.9,2.6c1.4,0,2.5-1.2,2.5-2.6s-1.2-2.6-2.7-2.6Z"/>
    <path class="cls-90" d="M339,132.2c0-1.4-1.1-2.6-2.6-2.6s-2.9,1.3-2.8,2.7c0,1.3,1.4,2.5,2.7,2.5s2.6-1.1,2.6-2.6h0Z"/>
    <path class="cls-91" d="M294.2,109.7c0,1.5,1.1,2.6,2.6,2.6s2.8-1.4,2.9-2.5c0-1.2-1.4-2.7-2.9-2.7s-2.6,1.1-2.6,2.6h0Z"/>
    <path class="cls-84" d="M275.2,136c0-1.6-.9-2.7-2.3-2.6-1.6,0-2.8,1.2-2.8,2.6s1.2,2.6,2.6,2.6,2.6-1.1,2.5-2.7h0Z"/>
    <path class="cls-85" d="M297,131.6c-1.6,0-2.7.9-2.7,2.4,0,1.5.8,2.6,2.3,2.7,1.4,0,3.1-1.2,3.2-2.5.1-1.2-1.2-2.5-2.7-2.5h0Z"/>
    <path class="cls-82" d="M257.2,137.2c-1.5,0-2.5,1.2-2.5,2.7s1.2,2.5,2.7,2.5c1.4,0,2.4-1.1,2.4-2.6s-1.2-2.6-2.7-2.6h0Z"/>
    <path class="cls-83" d="M336.3,128.3c1.5,0,2.7-1.1,2.6-2.5,0-1.4-1.1-2.5-2.5-2.5s-2.9,1.1-2.9,2.3,1.2,2.7,2.7,2.7h0Z"/>
    <path class="cls-88" d="M254.8,125.6c0,1.5,1.2,2.6,2.6,2.6s2.5-1.1,2.5-2.7-1.1-2.5-2.5-2.5-2.7,1.1-2.7,2.6h0Z"/>
    <path class="cls-89" d="M265.1,140.4c1.5,0,2.6-1,2.6-2.5s-1-2.6-2.5-2.7c-1.5,0-2.6,1-2.7,2.5,0,1.5,1,2.6,2.5,2.7h0Z"/>
    <path class="cls-87" d="M352.5,121.1c0-1.4-1.2-2.6-2.7-2.5-1.4,0-2.5,1.2-2.5,2.7,0,1.4,1.2,2.5,2.6,2.5s2.6-1.2,2.5-2.7Z"/>
    <path class="cls-86" d="M288.1,132c-1.5,0-2.5,1.2-2.5,2.7s1.1,2.5,2.5,2.5c1.5,0,2.6-1.1,2.6-2.6s-1.2-2.6-2.6-2.6h0Z"/>
    <path class="cls-96" d="M259.9,132.3c0-1.5-1-2.7-2.5-2.7s-2.6,1.2-2.6,2.6,1.1,2.5,2.5,2.6c1.5,0,2.7-1,2.7-2.5h0Z"/>
    <path class="cls-93" d="M296.8,114.3c-1.5,0-2.5.9-2.6,2.4,0,1.6,1,2.7,2.5,2.7s2.9-1.2,3-2.4c0-1.2-1.4-2.7-2.9-2.7Z"/>
    <path class="cls-94" d="M280.4,137.7c1.6,0,2.7-1,2.7-2.5s-.8-2.5-2.4-2.5c-1.6,0-2.7.9-2.7,2.4,0,1.6,1,2.6,2.5,2.7h0Z"/>
    <path class="cls-95" d="M257.4,116.4c-1.6,0-2.7,1-2.7,2.5s1.1,2.6,2.6,2.6,2.6-1,2.5-2.6c0-1.5-1-2.5-2.5-2.5Z"/>
    <path class="cls-99" d="M249.4,115.9c0-1.3-.9-2.3-2.2-2.3-1.3,0-2.2.8-2.3,2.1,0,1.4.8,2.5,2.2,2.5,1.3,0,2.2-.9,2.3-2.3h0Z"/>
    <path class="cls-100" d="M253.7,111.7c0-1.2-1-2.1-2.2-2.1s-2.4,1-2.3,2.2c0,1.2,1,2,2.3,2s2.3-.9,2.3-2h0Z"/>
    <path class="cls-97" d="M280.4,106.2c0-1.2-.9-2.1-2.2-2.2-1.4,0-2.4.9-2.4,2.1s1,2,2.3,2.1c1.3,0,2.3-.9,2.3-2Z"/>
    <path class="cls-98" d="M285.2,107.9c1.2,0,2.3-1,2.3-2s-1-2.1-2.3-2.1-2.5,1-2.4,2.2c0,1.1,1.1,2,2.3,2h0Z"/>
    <path class="cls-92" d="M301.5,102.6c-1.2,0-2.3,1-2.3,2.1s1.1,2,2.3,2,2.3-1,2.3-2-1.1-2.2-2.4-2.1Z"/>
    <path class="cls-101" d="M258.2,110.6c-1.2,0-2.3,1-2.3,2s1.1,2.2,2.4,2.1c1.2,0,2.3-1,2.3-2.1s-1.1-2-2.3-2h0Z"/>
    <path class="cls-1" d="M292,102.6c-1.3,0-2.3,1-2.3,2.1s1,2.1,2.4,2.1,2.2-1,2.2-2.2-1.1-2-2.3-2h0Z"/>
    <path class="cls-2" d="M271.1,105.3c-1.3,0-2.3.8-2.4,1.9,0,1.2,1,2.2,2.3,2.2s2.3-.9,2.3-2c0-1.2-1-2-2.3-2h0Z"/>
    <path class="cls-7" d="M264.5,111.8c1.2,0,2.3-1,2.3-2.1s-1-2-2.3-2-2.3.8-2.3,2,1,2.1,2.4,2.1h0Z"/>
    <path class="cls-9" d="M315.7,104c-1.2,0-2.4,1-2.3,2,0,1,1.2,2,2.3,2s2.3-.8,2.3-2-1-2.1-2.3-2Z"/>
    <path class="cls-8" d="M344.9,115.8c0,1.2,1,2.2,2.4,2.2s2-1,2-2.1-1-2.1-2.2-2.1-2.3.8-2.3,2Z"/>
    <path class="cls-10" d="M322.7,105.3c-1.4,0-2.4.8-2.4,2s.8,1.9,2.1,2c1.4,0,2.5-.8,2.5-2s-1-2-2.3-2Z"/>
    <path class="cls-5" d="M308.5,103.6c-1.4,0-2.3.8-2.3,2s.9,2,2.1,2,2.4-.8,2.5-1.9c0-1.1-1-2-2.3-2h0Z"/>
    <path class="cls-6" d="M337.7,112.5c0-1.3-.8-2-2.3-2s-2.3.9-2.2,2.1c0,1.2.9,1.9,2.2,1.9s2.3-.8,2.3-2h0Z"/>
    <path class="cls-4" d="M342.7,113.5c1.4,0,2.3-.7,2.3-2s-.8-2-2-2c-1.4,0-2.3.7-2.4,1.9s.8,2,2.2,2.1Z"/>
    <path class="cls-3" d="M331.5,109.7c0-1.3-.8-2-2.3-2s-2.3.9-2.2,2.1c0,1.2.9,1.9,2.2,1.9s2.3-.8,2.3-2h0Z"/>
  </g>
</svg>